<mxfile host="65bd71144e">
    <diagram id="YwTLgRLKVlQgc7LVQ3ul" name="mxint8-small-num-groups">
        <mxGraphModel dx="1524" dy="774" grid="1" gridSize="5" guides="1" tooltips="1" connect="1" arrows="1" fold="1" page="1" pageScale="1" pageWidth="827" pageHeight="1169" math="0" shadow="0">
            <root>
                <mxCell id="0"/>
                <mxCell id="1" parent="0"/>
                <mxCell id="64" value="" style="rounded=0;whiteSpace=wrap;html=1;fillColor=none;" parent="1" vertex="1">
                    <mxGeometry x="430" y="310" width="130" height="110" as="geometry"/>
                </mxCell>
                <mxCell id="154" value="" style="rounded=0;whiteSpace=wrap;html=1;fillColor=#dae8fc;strokeColor=#6c8ebf;opacity=30;dashed=1;" parent="1" vertex="1">
                    <mxGeometry x="430" y="310" width="130" height="35" as="geometry"/>
                </mxCell>
                <mxCell id="63" value="" style="rounded=0;whiteSpace=wrap;html=1;fillColor=none;" parent="1" vertex="1">
                    <mxGeometry x="130" y="315" width="120" height="10" as="geometry"/>
                </mxCell>
                <mxCell id="65" value="" style="endArrow=classic;html=1;" parent="1" edge="1">
                    <mxGeometry width="50" height="50" relative="1" as="geometry">
                        <mxPoint x="270" y="320" as="sourcePoint"/>
                        <mxPoint x="380" y="320" as="targetPoint"/>
                    </mxGeometry>
                </mxCell>
                <mxCell id="66" value="&lt;font style=&quot;font-size: 10px;&quot;&gt;GroupTiler = group_size: 1&lt;/font&gt;" style="text;html=1;align=center;verticalAlign=middle;resizable=0;points=[];autosize=1;strokeColor=none;fillColor=none;" parent="1" vertex="1">
                    <mxGeometry x="255" y="289.75" width="140" height="30" as="geometry"/>
                </mxCell>
                <mxCell id="67" value="" style="rounded=0;whiteSpace=wrap;html=1;fillColor=none;" parent="1" vertex="1">
                    <mxGeometry x="130" y="355" width="30" height="10" as="geometry"/>
                </mxCell>
                <mxCell id="68" value="" style="rounded=0;whiteSpace=wrap;html=1;fillColor=none;" parent="1" vertex="1">
                    <mxGeometry x="430" y="310" width="10" height="110" as="geometry"/>
                </mxCell>
                <mxCell id="69" value="" style="rounded=0;whiteSpace=wrap;html=1;fillColor=none;" parent="1" vertex="1">
                    <mxGeometry x="430" y="440" width="130" height="10" as="geometry"/>
                </mxCell>
                <mxCell id="70" value="mantissa X (uint8)" style="text;html=1;align=center;verticalAlign=middle;resizable=0;points=[];autosize=1;strokeColor=none;fillColor=none;" parent="1" vertex="1">
                    <mxGeometry x="10" y="305" width="120" height="30" as="geometry"/>
                </mxCell>
                <mxCell id="71" value="scales (uint8)" style="text;html=1;align=center;verticalAlign=middle;resizable=0;points=[];autosize=1;strokeColor=none;fillColor=none;" parent="1" vertex="1">
                    <mxGeometry x="35" y="345" width="90" height="30" as="geometry"/>
                </mxCell>
                <mxCell id="72" value="" style="rounded=0;whiteSpace=wrap;html=1;fillColor=none;" parent="1" vertex="1">
                    <mxGeometry x="440" y="310" width="10" height="110" as="geometry"/>
                </mxCell>
                <mxCell id="74" value="&lt;font style=&quot;font-size: 10px;&quot;&gt;num_groups&lt;br&gt;:= X.size() // ScaleTiler.size()&lt;/font&gt;" style="text;html=1;align=left;verticalAlign=middle;resizable=0;points=[];autosize=1;strokeColor=none;fillColor=none;" parent="1" vertex="1">
                    <mxGeometry x="430" y="238" width="150" height="45" as="geometry"/>
                </mxCell>
                <mxCell id="75" value="&lt;span style=&quot;text-align: left;&quot;&gt;&lt;font style=&quot;font-size: 10px;&quot;&gt;group_size&lt;/font&gt;&lt;/span&gt;" style="text;html=1;align=center;verticalAlign=middle;resizable=0;points=[];autosize=1;strokeColor=none;fillColor=none;" parent="1" vertex="1">
                    <mxGeometry x="355" y="352.5" width="70" height="30" as="geometry"/>
                </mxCell>
                <mxCell id="78" style="edgeStyle=none;html=1;dashed=1;endArrow=diamondThin;endFill=1;entryX=0.5;entryY=1;entryDx=0;entryDy=0;exitX=0.038;exitY=0.003;exitDx=0;exitDy=0;exitPerimeter=0;" parent="1" source="69" target="68" edge="1">
                    <mxGeometry relative="1" as="geometry">
                        <mxPoint x="420" y="435" as="sourcePoint"/>
                        <mxPoint x="435" y="430" as="targetPoint"/>
                    </mxGeometry>
                </mxCell>
                <mxCell id="79" value="" style="rounded=0;whiteSpace=wrap;html=1;fillColor=none;" parent="1" vertex="1">
                    <mxGeometry x="430" y="440" width="10" height="10" as="geometry"/>
                </mxCell>
                <mxCell id="85" value="" style="rounded=0;whiteSpace=wrap;html=1;fillColor=#dae8fc;strokeColor=#6c8ebf;opacity=60;dashed=1;" parent="1" vertex="1">
                    <mxGeometry x="430" y="440" width="10" height="10" as="geometry"/>
                </mxCell>
                <mxCell id="86" value="" style="rounded=0;whiteSpace=wrap;html=1;fillColor=none;" parent="1" vertex="1">
                    <mxGeometry x="805" y="375" width="10" height="10" as="geometry"/>
                </mxCell>
                <mxCell id="87" value="" style="rounded=0;whiteSpace=wrap;html=1;fillColor=none;" parent="1" vertex="1">
                    <mxGeometry x="815" y="375" width="10" height="10" as="geometry"/>
                </mxCell>
                <mxCell id="88" value="" style="rounded=0;whiteSpace=wrap;html=1;fillColor=none;" parent="1" vertex="1">
                    <mxGeometry x="825" y="375" width="10" height="10" as="geometry"/>
                </mxCell>
                <mxCell id="89" value="" style="rounded=0;whiteSpace=wrap;html=1;fillColor=none;" parent="1" vertex="1">
                    <mxGeometry x="835" y="375" width="10" height="10" as="geometry"/>
                </mxCell>
                <mxCell id="91" value="" style="whiteSpace=wrap;html=1;fillColor=none;" parent="1" vertex="1">
                    <mxGeometry x="805" y="320" width="10" height="35" as="geometry"/>
                </mxCell>
                <mxCell id="92" value="" style="whiteSpace=wrap;html=1;fillColor=none;" parent="1" vertex="1">
                    <mxGeometry x="815" y="320" width="10" height="35" as="geometry"/>
                </mxCell>
                <mxCell id="93" value="" style="whiteSpace=wrap;html=1;fillColor=none;" parent="1" vertex="1">
                    <mxGeometry x="825" y="320" width="10" height="35" as="geometry"/>
                </mxCell>
                <mxCell id="94" value="" style="whiteSpace=wrap;html=1;fillColor=none;" parent="1" vertex="1">
                    <mxGeometry x="835" y="320" width="10" height="35" as="geometry"/>
                </mxCell>
                <mxCell id="96" value="" style="edgeStyle=none;orthogonalLoop=1;jettySize=auto;html=1;endArrow=classic;endFill=1;" parent="1" edge="1">
                    <mxGeometry width="100" relative="1" as="geometry">
                        <mxPoint x="575" y="339.84" as="sourcePoint"/>
                        <mxPoint x="720" y="340" as="targetPoint"/>
                        <Array as="points"/>
                    </mxGeometry>
                </mxCell>
                <mxCell id="97" value="&lt;font style=&quot;font-size: 10px;&quot;&gt;CtaTiler &lt;br&gt;= (BLK_M, BLK_K): (1, BLK_M)&lt;/font&gt;" style="text;html=1;align=center;verticalAlign=middle;resizable=0;points=[];autosize=1;strokeColor=none;fillColor=none;" parent="1" vertex="1">
                    <mxGeometry x="565" y="290" width="160" height="45" as="geometry"/>
                </mxCell>
                <mxCell id="98" value="tile of a thread block" style="text;html=1;align=center;verticalAlign=middle;resizable=0;points=[];autosize=1;strokeColor=none;fillColor=none;" parent="1" vertex="1">
                    <mxGeometry x="760" y="390" width="130" height="30" as="geometry"/>
                </mxCell>
                <mxCell id="99" value="" style="rounded=0;whiteSpace=wrap;html=1;fillColor=none;" parent="1" vertex="1">
                    <mxGeometry x="935" y="380" width="10" height="10" as="geometry"/>
                </mxCell>
                <mxCell id="100" value="" style="rounded=0;whiteSpace=wrap;html=1;fillColor=none;" parent="1" vertex="1">
                    <mxGeometry x="945" y="380" width="10" height="10" as="geometry"/>
                </mxCell>
                <mxCell id="101" value="" style="rounded=0;whiteSpace=wrap;html=1;fillColor=none;" parent="1" vertex="1">
                    <mxGeometry x="955" y="380" width="10" height="10" as="geometry"/>
                </mxCell>
                <mxCell id="102" value="" style="rounded=0;whiteSpace=wrap;html=1;fillColor=none;" parent="1" vertex="1">
                    <mxGeometry x="965" y="380" width="10" height="10" as="geometry"/>
                </mxCell>
                <mxCell id="109" value="A thread" style="text;html=1;align=center;verticalAlign=middle;resizable=0;points=[];autosize=1;strokeColor=none;fillColor=none;opacity=60;" parent="1" vertex="1">
                    <mxGeometry x="920" y="290" width="65" height="30" as="geometry"/>
                </mxCell>
                <mxCell id="110" value="&lt;font style=&quot;font-size: 10px;&quot;&gt;partition X and scales &lt;br&gt;across thread blocks&lt;/font&gt;" style="text;html=1;align=center;verticalAlign=middle;resizable=0;points=[];autosize=1;strokeColor=none;fillColor=none;" parent="1" vertex="1">
                    <mxGeometry x="267.5" y="315" width="115" height="45" as="geometry"/>
                </mxCell>
                <mxCell id="119" value="" style="rounded=0;whiteSpace=wrap;html=1;fillColor=none;" parent="1" vertex="1">
                    <mxGeometry x="450" y="310" width="10" height="110" as="geometry"/>
                </mxCell>
                <mxCell id="120" value="" style="rounded=0;whiteSpace=wrap;html=1;fillColor=none;" parent="1" vertex="1">
                    <mxGeometry x="460" y="310" width="10" height="110" as="geometry"/>
                </mxCell>
                <mxCell id="82" value="" style="rounded=0;whiteSpace=wrap;html=1;fillColor=#dae8fc;strokeColor=#6c8ebf;opacity=90;dashed=1;glass=0;" parent="1" vertex="1">
                    <mxGeometry x="430" y="310" width="40" height="35" as="geometry"/>
                </mxCell>
                <mxCell id="121" style="edgeStyle=none;html=1;dashed=1;endArrow=diamondThin;endFill=1;entryX=0.5;entryY=1;entryDx=0;entryDy=0;exitX=0.038;exitY=0.003;exitDx=0;exitDy=0;exitPerimeter=0;" parent="1" edge="1">
                    <mxGeometry relative="1" as="geometry">
                        <mxPoint x="444.96999999999997" y="440" as="sourcePoint"/>
                        <mxPoint x="445.03" y="419.97" as="targetPoint"/>
                    </mxGeometry>
                </mxCell>
                <mxCell id="122" value="" style="rounded=0;whiteSpace=wrap;html=1;fillColor=none;" parent="1" vertex="1">
                    <mxGeometry x="440" y="440" width="10" height="10" as="geometry"/>
                </mxCell>
                <mxCell id="123" value="" style="rounded=0;whiteSpace=wrap;html=1;fillColor=none;" parent="1" vertex="1">
                    <mxGeometry x="450" y="440" width="10" height="10" as="geometry"/>
                </mxCell>
                <mxCell id="124" value="" style="rounded=0;whiteSpace=wrap;html=1;fillColor=none;" parent="1" vertex="1">
                    <mxGeometry x="460" y="440" width="10" height="10" as="geometry"/>
                </mxCell>
                <mxCell id="126" value="" style="rounded=0;whiteSpace=wrap;html=1;fillColor=#dae8fc;strokeColor=#6c8ebf;opacity=60;dashed=1;" parent="1" vertex="1">
                    <mxGeometry x="440" y="440" width="10" height="10" as="geometry"/>
                </mxCell>
                <mxCell id="128" value="" style="rounded=0;whiteSpace=wrap;html=1;fillColor=#dae8fc;strokeColor=#6c8ebf;opacity=60;dashed=1;" parent="1" vertex="1">
                    <mxGeometry x="450" y="440" width="10" height="10" as="geometry"/>
                </mxCell>
                <mxCell id="129" value="" style="rounded=0;whiteSpace=wrap;html=1;fillColor=#dae8fc;strokeColor=#6c8ebf;opacity=60;dashed=1;" parent="1" vertex="1">
                    <mxGeometry x="460" y="440" width="10" height="10" as="geometry"/>
                </mxCell>
                <mxCell id="130" value="" style="rounded=0;whiteSpace=wrap;html=1;fillColor=#dae8fc;strokeColor=#6c8ebf;opacity=60;dashed=1;" parent="1" vertex="1">
                    <mxGeometry x="805" y="320" width="40" height="35" as="geometry"/>
                </mxCell>
                <mxCell id="131" style="edgeStyle=none;html=1;dashed=1;endArrow=diamondThin;endFill=1;entryX=0.5;entryY=1;entryDx=0;entryDy=0;exitX=0.038;exitY=0.003;exitDx=0;exitDy=0;exitPerimeter=0;" parent="1" edge="1">
                    <mxGeometry relative="1" as="geometry">
                        <mxPoint x="809.89" y="375.0300000000001" as="sourcePoint"/>
                        <mxPoint x="809.9499999999999" y="355" as="targetPoint"/>
                    </mxGeometry>
                </mxCell>
                <mxCell id="132" style="edgeStyle=none;html=1;dashed=1;endArrow=diamondThin;endFill=1;entryX=0.5;entryY=1;entryDx=0;entryDy=0;exitX=0.038;exitY=0.003;exitDx=0;exitDy=0;exitPerimeter=0;" parent="1" edge="1">
                    <mxGeometry relative="1" as="geometry">
                        <mxPoint x="819.89" y="375.0300000000001" as="sourcePoint"/>
                        <mxPoint x="819.9499999999999" y="355" as="targetPoint"/>
                    </mxGeometry>
                </mxCell>
                <mxCell id="133" style="edgeStyle=none;html=1;dashed=1;endArrow=diamondThin;endFill=1;entryX=0.5;entryY=1;entryDx=0;entryDy=0;exitX=0.038;exitY=0.003;exitDx=0;exitDy=0;exitPerimeter=0;" parent="1" edge="1">
                    <mxGeometry relative="1" as="geometry">
                        <mxPoint x="829.89" y="375.0300000000001" as="sourcePoint"/>
                        <mxPoint x="829.9499999999999" y="355" as="targetPoint"/>
                    </mxGeometry>
                </mxCell>
                <mxCell id="134" style="edgeStyle=none;html=1;dashed=1;endArrow=diamondThin;endFill=1;entryX=0.5;entryY=1;entryDx=0;entryDy=0;exitX=0.038;exitY=0.003;exitDx=0;exitDy=0;exitPerimeter=0;" parent="1" edge="1">
                    <mxGeometry relative="1" as="geometry">
                        <mxPoint x="839.89" y="375.0000000000001" as="sourcePoint"/>
                        <mxPoint x="839.9499999999999" y="354.97" as="targetPoint"/>
                    </mxGeometry>
                </mxCell>
                <mxCell id="135" value="" style="whiteSpace=wrap;html=1;fillColor=none;" parent="1" vertex="1">
                    <mxGeometry x="935" y="320" width="10" height="35" as="geometry"/>
                </mxCell>
                <mxCell id="136" value="" style="whiteSpace=wrap;html=1;fillColor=none;" parent="1" vertex="1">
                    <mxGeometry x="945" y="320" width="10" height="35" as="geometry"/>
                </mxCell>
                <mxCell id="137" value="" style="whiteSpace=wrap;html=1;fillColor=none;" parent="1" vertex="1">
                    <mxGeometry x="955" y="320" width="10" height="35" as="geometry"/>
                </mxCell>
                <mxCell id="138" value="" style="whiteSpace=wrap;html=1;fillColor=none;" parent="1" vertex="1">
                    <mxGeometry x="965" y="320" width="10" height="35" as="geometry"/>
                </mxCell>
                <mxCell id="209" style="edgeStyle=none;html=1;exitX=0;exitY=0.5;exitDx=0;exitDy=0;entryX=0.988;entryY=0.549;entryDx=0;entryDy=0;entryPerimeter=0;endArrow=none;endFill=0;dashed=1;dashPattern=1 2;" parent="1" source="107" target="146" edge="1">
                    <mxGeometry relative="1" as="geometry"/>
                </mxCell>
                <mxCell id="107" value="" style="rounded=0;whiteSpace=wrap;html=1;fillColor=#f8cecc;strokeColor=#b85450;opacity=60;" parent="1" vertex="1">
                    <mxGeometry x="935" y="320" width="10" height="5" as="geometry"/>
                </mxCell>
                <mxCell id="142" value="" style="rounded=0;whiteSpace=wrap;html=1;fillColor=#f8cecc;strokeColor=#b85450;opacity=60;sketch=1;curveFitting=1;jiggle=1;fillStyle=solid;" parent="1" vertex="1">
                    <mxGeometry x="935" y="380" width="10" height="10" as="geometry"/>
                </mxCell>
                <mxCell id="145" value="bf16 reg" style="text;html=1;align=center;verticalAlign=middle;resizable=0;points=[];autosize=1;strokeColor=none;fillColor=none;" parent="1" vertex="1">
                    <mxGeometry x="917.5" y="390" width="65" height="30" as="geometry"/>
                </mxCell>
                <mxCell id="146" value="&lt;font style=&quot;font-size: 8px;&quot;&gt;thread 0&lt;/font&gt;" style="text;html=1;align=center;verticalAlign=middle;resizable=0;points=[];autosize=1;strokeColor=none;fillColor=none;" parent="1" vertex="1">
                    <mxGeometry x="875" y="307.5" width="50" height="30" as="geometry"/>
                </mxCell>
                <mxCell id="147" value="&lt;font style=&quot;font-size: 8px;&quot;&gt;thread 1&lt;/font&gt;" style="text;html=1;align=center;verticalAlign=middle;resizable=0;points=[];autosize=1;strokeColor=none;fillColor=none;" parent="1" vertex="1">
                    <mxGeometry x="875" y="327.5" width="50" height="30" as="geometry"/>
                </mxCell>
                <mxCell id="211" style="edgeStyle=none;html=1;exitX=0;exitY=0.5;exitDx=0;exitDy=0;entryX=0.996;entryY=0.54;entryDx=0;entryDy=0;entryPerimeter=0;endArrow=none;endFill=0;dashed=1;dashPattern=1 2;" parent="1" source="148" target="147" edge="1">
                    <mxGeometry relative="1" as="geometry"/>
                </mxCell>
                <mxCell id="148" value="" style="rounded=0;whiteSpace=wrap;html=1;fillColor=#e1d5e7;strokeColor=#9673a6;opacity=60;" parent="1" vertex="1">
                    <mxGeometry x="935" y="325" width="10" height="5" as="geometry"/>
                </mxCell>
                <mxCell id="151" value="" style="rounded=0;whiteSpace=wrap;html=1;fillColor=#e1d5e7;strokeColor=#9673a6;opacity=60;sketch=1;curveFitting=1;jiggle=1;fillStyle=solid;" parent="1" vertex="1">
                    <mxGeometry x="935" y="380" width="10" height="10" as="geometry"/>
                </mxCell>
                <mxCell id="153" value="column-major mX = (_group_size, num_groups) : (_1, _block_size)" style="text;html=1;align=center;verticalAlign=middle;resizable=0;points=[];autosize=1;strokeColor=none;fillColor=none;fontSize=8;sketch=1;jiggle=1;fillStyle=solid;" parent="1" vertex="1">
                    <mxGeometry x="383" y="470" width="260" height="25" as="geometry"/>
                </mxCell>
                <mxCell id="210" style="edgeStyle=none;html=1;exitX=0;exitY=0.5;exitDx=0;exitDy=0;entryX=0.987;entryY=0.549;entryDx=0;entryDy=0;entryPerimeter=0;endArrow=none;endFill=0;dashed=1;dashPattern=1 2;" parent="1" source="192" target="146" edge="1">
                    <mxGeometry relative="1" as="geometry"/>
                </mxCell>
                <mxCell id="192" value="" style="rounded=0;whiteSpace=wrap;html=1;fillColor=#f8cecc;strokeColor=#b85450;opacity=60;" parent="1" vertex="1">
                    <mxGeometry x="935" y="340" width="10" height="5" as="geometry"/>
                </mxCell>
                <mxCell id="212" style="edgeStyle=none;html=1;exitX=0;exitY=0.5;exitDx=0;exitDy=0;entryX=0.994;entryY=0.536;entryDx=0;entryDy=0;entryPerimeter=0;endArrow=none;endFill=0;dashed=1;dashPattern=1 2;" parent="1" source="193" target="147" edge="1">
                    <mxGeometry relative="1" as="geometry"/>
                </mxCell>
                <mxCell id="193" value="" style="rounded=0;whiteSpace=wrap;html=1;fillColor=#e1d5e7;strokeColor=#9673a6;opacity=60;" parent="1" vertex="1">
                    <mxGeometry x="935" y="345" width="10" height="5" as="geometry"/>
                </mxCell>
                <mxCell id="196" value="t0" style="whiteSpace=wrap;html=1;fillColor=none;" parent="1" vertex="1">
                    <mxGeometry x="902.5" y="617" width="20" height="20" as="geometry"/>
                </mxCell>
                <mxCell id="197" value="t4" style="whiteSpace=wrap;html=1;fillColor=none;" parent="1" vertex="1">
                    <mxGeometry x="922.5" y="617" width="20" height="20" as="geometry"/>
                </mxCell>
                <mxCell id="198" value="" style="whiteSpace=wrap;html=1;fillColor=none;" parent="1" vertex="1">
                    <mxGeometry x="942.5" y="617" width="20" height="20" as="geometry"/>
                </mxCell>
                <mxCell id="199" value="" style="whiteSpace=wrap;html=1;fillColor=none;" parent="1" vertex="1">
                    <mxGeometry x="962.5" y="617" width="20" height="20" as="geometry"/>
                </mxCell>
                <mxCell id="200" value="" style="whiteSpace=wrap;html=1;fillColor=none;" parent="1" vertex="1">
                    <mxGeometry x="982.5" y="617" width="20" height="20" as="geometry"/>
                </mxCell>
                <mxCell id="201" value="" style="whiteSpace=wrap;html=1;fillColor=none;" parent="1" vertex="1">
                    <mxGeometry x="1002.5" y="617" width="20" height="20" as="geometry"/>
                </mxCell>
                <mxCell id="202" value="" style="whiteSpace=wrap;html=1;fillColor=none;" parent="1" vertex="1">
                    <mxGeometry x="1022.5" y="617" width="20" height="20" as="geometry"/>
                </mxCell>
                <mxCell id="203" value="" style="whiteSpace=wrap;html=1;fillColor=none;" parent="1" vertex="1">
                    <mxGeometry x="1042.5" y="617" width="20" height="20" as="geometry"/>
                </mxCell>
                <mxCell id="213" value="t1" style="whiteSpace=wrap;html=1;fillColor=none;" parent="1" vertex="1">
                    <mxGeometry x="902.5" y="637" width="20" height="20" as="geometry"/>
                </mxCell>
                <mxCell id="214" value="t5" style="whiteSpace=wrap;html=1;fillColor=none;" parent="1" vertex="1">
                    <mxGeometry x="922.5" y="637" width="20" height="20" as="geometry"/>
                </mxCell>
                <mxCell id="215" value="" style="whiteSpace=wrap;html=1;fillColor=none;" parent="1" vertex="1">
                    <mxGeometry x="942.5" y="637" width="20" height="20" as="geometry"/>
                </mxCell>
                <mxCell id="216" value="" style="whiteSpace=wrap;html=1;fillColor=none;" parent="1" vertex="1">
                    <mxGeometry x="962.5" y="637" width="20" height="20" as="geometry"/>
                </mxCell>
                <mxCell id="217" value="" style="whiteSpace=wrap;html=1;fillColor=none;" parent="1" vertex="1">
                    <mxGeometry x="982.5" y="637" width="20" height="20" as="geometry"/>
                </mxCell>
                <mxCell id="218" value="" style="whiteSpace=wrap;html=1;fillColor=none;" parent="1" vertex="1">
                    <mxGeometry x="1002.5" y="637" width="20" height="20" as="geometry"/>
                </mxCell>
                <mxCell id="219" value="" style="whiteSpace=wrap;html=1;fillColor=none;" parent="1" vertex="1">
                    <mxGeometry x="1022.5" y="637" width="20" height="20" as="geometry"/>
                </mxCell>
                <mxCell id="220" value="" style="whiteSpace=wrap;html=1;fillColor=none;" parent="1" vertex="1">
                    <mxGeometry x="1042.5" y="637" width="20" height="20" as="geometry"/>
                </mxCell>
                <mxCell id="225" value="t2" style="whiteSpace=wrap;html=1;fillColor=none;" parent="1" vertex="1">
                    <mxGeometry x="902.5" y="657" width="20" height="20" as="geometry"/>
                </mxCell>
                <mxCell id="226" value="" style="whiteSpace=wrap;html=1;fillColor=none;" parent="1" vertex="1">
                    <mxGeometry x="922.5" y="657" width="20" height="20" as="geometry"/>
                </mxCell>
                <mxCell id="227" value="" style="whiteSpace=wrap;html=1;fillColor=none;" parent="1" vertex="1">
                    <mxGeometry x="942.5" y="657" width="20" height="20" as="geometry"/>
                </mxCell>
                <mxCell id="228" value="" style="whiteSpace=wrap;html=1;fillColor=none;" parent="1" vertex="1">
                    <mxGeometry x="962.5" y="657" width="20" height="20" as="geometry"/>
                </mxCell>
                <mxCell id="229" value="" style="whiteSpace=wrap;html=1;fillColor=none;" parent="1" vertex="1">
                    <mxGeometry x="982.5" y="657" width="20" height="20" as="geometry"/>
                </mxCell>
                <mxCell id="230" value="" style="whiteSpace=wrap;html=1;fillColor=none;" parent="1" vertex="1">
                    <mxGeometry x="1002.5" y="657" width="20" height="20" as="geometry"/>
                </mxCell>
                <mxCell id="231" value="" style="whiteSpace=wrap;html=1;fillColor=none;" parent="1" vertex="1">
                    <mxGeometry x="1022.5" y="657" width="20" height="20" as="geometry"/>
                </mxCell>
                <mxCell id="232" value="" style="whiteSpace=wrap;html=1;fillColor=none;" parent="1" vertex="1">
                    <mxGeometry x="1042.5" y="657" width="20" height="20" as="geometry"/>
                </mxCell>
                <mxCell id="237" value="t3" style="whiteSpace=wrap;html=1;fillColor=none;" parent="1" vertex="1">
                    <mxGeometry x="902.5" y="677" width="20" height="20" as="geometry"/>
                </mxCell>
                <mxCell id="238" value="" style="whiteSpace=wrap;html=1;fillColor=none;" parent="1" vertex="1">
                    <mxGeometry x="922.5" y="677" width="20" height="20" as="geometry"/>
                </mxCell>
                <mxCell id="239" value="" style="whiteSpace=wrap;html=1;fillColor=none;" parent="1" vertex="1">
                    <mxGeometry x="942.5" y="677" width="20" height="20" as="geometry"/>
                </mxCell>
                <mxCell id="240" value="" style="whiteSpace=wrap;html=1;fillColor=none;" parent="1" vertex="1">
                    <mxGeometry x="962.5" y="677" width="20" height="20" as="geometry"/>
                </mxCell>
                <mxCell id="241" value="" style="whiteSpace=wrap;html=1;fillColor=none;" parent="1" vertex="1">
                    <mxGeometry x="982.5" y="677" width="20" height="20" as="geometry"/>
                </mxCell>
                <mxCell id="242" value="" style="whiteSpace=wrap;html=1;fillColor=none;" parent="1" vertex="1">
                    <mxGeometry x="1002.5" y="677" width="20" height="20" as="geometry"/>
                </mxCell>
                <mxCell id="243" value="" style="whiteSpace=wrap;html=1;fillColor=none;" parent="1" vertex="1">
                    <mxGeometry x="1022.5" y="677" width="20" height="20" as="geometry"/>
                </mxCell>
                <mxCell id="244" value="t31" style="whiteSpace=wrap;html=1;fillColor=none;" parent="1" vertex="1">
                    <mxGeometry x="1042.5" y="677" width="20" height="20" as="geometry"/>
                </mxCell>
                <mxCell id="249" value="t0" style="whiteSpace=wrap;html=1;fillColor=none;dashed=1;dashPattern=1 2;" parent="1" vertex="1">
                    <mxGeometry x="902.5" y="697" width="20" height="20" as="geometry"/>
                </mxCell>
                <mxCell id="250" value="t4" style="whiteSpace=wrap;html=1;fillColor=none;dashed=1;dashPattern=1 2;" parent="1" vertex="1">
                    <mxGeometry x="922.5" y="697" width="20" height="20" as="geometry"/>
                </mxCell>
                <mxCell id="251" value="" style="whiteSpace=wrap;html=1;fillColor=none;dashed=1;dashPattern=1 2;" parent="1" vertex="1">
                    <mxGeometry x="942.5" y="697" width="20" height="20" as="geometry"/>
                </mxCell>
                <mxCell id="252" value="" style="whiteSpace=wrap;html=1;fillColor=none;dashed=1;dashPattern=1 2;" parent="1" vertex="1">
                    <mxGeometry x="962.5" y="697" width="20" height="20" as="geometry"/>
                </mxCell>
                <mxCell id="253" value="" style="whiteSpace=wrap;html=1;fillColor=none;dashed=1;dashPattern=1 2;" parent="1" vertex="1">
                    <mxGeometry x="982.5" y="697" width="20" height="20" as="geometry"/>
                </mxCell>
                <mxCell id="254" value="" style="whiteSpace=wrap;html=1;fillColor=none;dashed=1;dashPattern=1 2;" parent="1" vertex="1">
                    <mxGeometry x="1002.5" y="697" width="20" height="20" as="geometry"/>
                </mxCell>
                <mxCell id="255" value="" style="whiteSpace=wrap;html=1;fillColor=none;dashed=1;dashPattern=1 2;" parent="1" vertex="1">
                    <mxGeometry x="1022.5" y="697" width="20" height="20" as="geometry"/>
                </mxCell>
                <mxCell id="256" value="" style="whiteSpace=wrap;html=1;fillColor=none;dashed=1;dashPattern=1 2;" parent="1" vertex="1">
                    <mxGeometry x="1042.5" y="697" width="20" height="20" as="geometry"/>
                </mxCell>
                <mxCell id="261" value="t1" style="whiteSpace=wrap;html=1;fillColor=none;dashed=1;dashPattern=1 2;" parent="1" vertex="1">
                    <mxGeometry x="902.5" y="717" width="20" height="20" as="geometry"/>
                </mxCell>
                <mxCell id="262" value="t5" style="whiteSpace=wrap;html=1;fillColor=none;dashed=1;dashPattern=1 2;" parent="1" vertex="1">
                    <mxGeometry x="922.5" y="717" width="20" height="20" as="geometry"/>
                </mxCell>
                <mxCell id="263" value="" style="whiteSpace=wrap;html=1;fillColor=none;dashed=1;dashPattern=1 2;" parent="1" vertex="1">
                    <mxGeometry x="942.5" y="717" width="20" height="20" as="geometry"/>
                </mxCell>
                <mxCell id="264" value="" style="whiteSpace=wrap;html=1;fillColor=none;dashed=1;dashPattern=1 2;" parent="1" vertex="1">
                    <mxGeometry x="962.5" y="717" width="20" height="20" as="geometry"/>
                </mxCell>
                <mxCell id="265" value="" style="whiteSpace=wrap;html=1;fillColor=none;dashed=1;dashPattern=1 2;" parent="1" vertex="1">
                    <mxGeometry x="982.5" y="717" width="20" height="20" as="geometry"/>
                </mxCell>
                <mxCell id="266" value="" style="whiteSpace=wrap;html=1;fillColor=none;dashed=1;dashPattern=1 2;" parent="1" vertex="1">
                    <mxGeometry x="1002.5" y="717" width="20" height="20" as="geometry"/>
                </mxCell>
                <mxCell id="267" value="" style="whiteSpace=wrap;html=1;fillColor=none;dashed=1;dashPattern=1 2;" parent="1" vertex="1">
                    <mxGeometry x="1022.5" y="717" width="20" height="20" as="geometry"/>
                </mxCell>
                <mxCell id="268" value="" style="whiteSpace=wrap;html=1;fillColor=none;dashed=1;dashPattern=1 2;" parent="1" vertex="1">
                    <mxGeometry x="1042.5" y="717" width="20" height="20" as="geometry"/>
                </mxCell>
                <mxCell id="273" value="t2" style="whiteSpace=wrap;html=1;fillColor=none;dashed=1;dashPattern=1 2;" parent="1" vertex="1">
                    <mxGeometry x="902.5" y="737" width="20" height="20" as="geometry"/>
                </mxCell>
                <mxCell id="274" value="" style="whiteSpace=wrap;html=1;fillColor=none;dashed=1;dashPattern=1 2;" parent="1" vertex="1">
                    <mxGeometry x="922.5" y="737" width="20" height="20" as="geometry"/>
                </mxCell>
                <mxCell id="275" value="" style="whiteSpace=wrap;html=1;fillColor=none;dashed=1;dashPattern=1 2;" parent="1" vertex="1">
                    <mxGeometry x="942.5" y="737" width="20" height="20" as="geometry"/>
                </mxCell>
                <mxCell id="276" value="" style="whiteSpace=wrap;html=1;fillColor=none;dashed=1;dashPattern=1 2;" parent="1" vertex="1">
                    <mxGeometry x="962.5" y="737" width="20" height="20" as="geometry"/>
                </mxCell>
                <mxCell id="277" value="" style="whiteSpace=wrap;html=1;fillColor=none;dashed=1;dashPattern=1 2;" parent="1" vertex="1">
                    <mxGeometry x="982.5" y="737" width="20" height="20" as="geometry"/>
                </mxCell>
                <mxCell id="278" value="" style="whiteSpace=wrap;html=1;fillColor=none;dashed=1;dashPattern=1 2;" parent="1" vertex="1">
                    <mxGeometry x="1002.5" y="737" width="20" height="20" as="geometry"/>
                </mxCell>
                <mxCell id="279" value="" style="whiteSpace=wrap;html=1;fillColor=none;dashed=1;dashPattern=1 2;" parent="1" vertex="1">
                    <mxGeometry x="1022.5" y="737" width="20" height="20" as="geometry"/>
                </mxCell>
                <mxCell id="280" value="" style="whiteSpace=wrap;html=1;fillColor=none;dashed=1;dashPattern=1 2;" parent="1" vertex="1">
                    <mxGeometry x="1042.5" y="737" width="20" height="20" as="geometry"/>
                </mxCell>
                <mxCell id="285" value="t3" style="whiteSpace=wrap;html=1;fillColor=none;dashed=1;dashPattern=1 2;" parent="1" vertex="1">
                    <mxGeometry x="902.5" y="757" width="20" height="20" as="geometry"/>
                </mxCell>
                <mxCell id="286" value="" style="whiteSpace=wrap;html=1;fillColor=none;dashed=1;dashPattern=1 2;" parent="1" vertex="1">
                    <mxGeometry x="922.5" y="757" width="20" height="20" as="geometry"/>
                </mxCell>
                <mxCell id="287" value="" style="whiteSpace=wrap;html=1;fillColor=none;dashed=1;dashPattern=1 2;" parent="1" vertex="1">
                    <mxGeometry x="942.5" y="757" width="20" height="20" as="geometry"/>
                </mxCell>
                <mxCell id="288" value="" style="whiteSpace=wrap;html=1;fillColor=none;dashed=1;dashPattern=1 2;" parent="1" vertex="1">
                    <mxGeometry x="962.5" y="757" width="20" height="20" as="geometry"/>
                </mxCell>
                <mxCell id="289" value="" style="whiteSpace=wrap;html=1;fillColor=none;dashed=1;dashPattern=1 2;" parent="1" vertex="1">
                    <mxGeometry x="982.5" y="757" width="20" height="20" as="geometry"/>
                </mxCell>
                <mxCell id="290" value="" style="whiteSpace=wrap;html=1;fillColor=none;dashed=1;dashPattern=1 2;" parent="1" vertex="1">
                    <mxGeometry x="1002.5" y="757" width="20" height="20" as="geometry"/>
                </mxCell>
                <mxCell id="291" value="" style="whiteSpace=wrap;html=1;fillColor=none;dashed=1;dashPattern=1 2;" parent="1" vertex="1">
                    <mxGeometry x="1022.5" y="757" width="20" height="20" as="geometry"/>
                </mxCell>
                <mxCell id="292" value="t31" style="whiteSpace=wrap;html=1;fillColor=none;dashed=1;dashPattern=1 2;" parent="1" vertex="1">
                    <mxGeometry x="1042.5" y="757" width="20" height="20" as="geometry"/>
                </mxCell>
                <mxCell id="297" value="group_size = 8, BLK_M = 8, BLK = 128&lt;br&gt;group_size = 16, BLK_M = 16, BLK = 64&lt;br&gt;group_size = 32, BLK_M = 32, BLK = 32&lt;br&gt;group_size = 64, BLK_M = 64, BLK = 16&lt;br&gt;group_size = 128, BLK_M = 64, BLK = 8&lt;br&gt;larger&amp;nbsp; &amp;nbsp; &amp;nbsp; &amp;nbsp; &amp;nbsp; &amp;nbsp; &amp;nbsp; &amp;nbsp; &amp;nbsp; &amp;nbsp; &amp;nbsp;BLK_M = 128, BLK = 8" style="text;html=1;align=left;verticalAlign=middle;resizable=0;points=[];autosize=1;strokeColor=none;fillColor=none;" parent="1" vertex="1">
                    <mxGeometry x="902.5" y="460" width="245" height="100" as="geometry"/>
                </mxCell>
                <mxCell id="298" value="THD_M = 4" style="text;html=1;align=center;verticalAlign=middle;resizable=0;points=[];autosize=1;strokeColor=none;fillColor=none;" parent="1" vertex="1">
                    <mxGeometry x="792.5" y="642" width="85" height="30" as="geometry"/>
                </mxCell>
                <mxCell id="299" value="" style="strokeWidth=1;html=1;shape=mxgraph.flowchart.annotation_2;align=left;labelPosition=right;pointerEvents=1;" parent="1" vertex="1">
                    <mxGeometry x="877.5" y="617" width="20" height="80" as="geometry"/>
                </mxCell>
                <mxCell id="300" value="" style="strokeWidth=1;html=1;shape=mxgraph.flowchart.annotation_2;align=left;labelPosition=right;pointerEvents=1;rotation=90;" parent="1" vertex="1">
                    <mxGeometry x="974.81" y="527.56" width="14.63" height="159.25" as="geometry"/>
                </mxCell>
                <mxCell id="301" value="THD_K = 8" style="text;html=1;align=center;verticalAlign=middle;resizable=0;points=[];autosize=1;strokeColor=none;fillColor=none;" parent="1" vertex="1">
                    <mxGeometry x="942.6199999999999" y="572" width="80" height="30" as="geometry"/>
                </mxCell>
                <mxCell id="302" value="layout_sX = (4, 8): (1, 4)" style="text;html=1;align=center;verticalAlign=middle;resizable=0;points=[];autosize=1;strokeColor=none;fillColor=none;" parent="1" vertex="1">
                    <mxGeometry x="907.62" y="795" width="150" height="30" as="geometry"/>
                </mxCell>
                <mxCell id="303" value="i=0" style="text;html=1;align=center;verticalAlign=middle;resizable=0;points=[];autosize=1;strokeColor=none;fillColor=none;" parent="1" vertex="1">
                    <mxGeometry x="1075" y="647" width="35" height="30" as="geometry"/>
                </mxCell>
                <mxCell id="304" value="i=1" style="text;html=1;align=center;verticalAlign=middle;resizable=0;points=[];autosize=1;strokeColor=none;fillColor=none;" parent="1" vertex="1">
                    <mxGeometry x="1075" y="727" width="35" height="30" as="geometry"/>
                </mxCell>
                <mxCell id="305" value="" style="strokeWidth=1;html=1;shape=mxgraph.flowchart.annotation_2;align=left;labelPosition=right;pointerEvents=1;" parent="1" vertex="1">
                    <mxGeometry x="790" y="320" width="10" height="35" as="geometry"/>
                </mxCell>
                <mxCell id="306" value="BLK_M" style="text;html=1;align=center;verticalAlign=middle;resizable=0;points=[];autosize=1;strokeColor=none;fillColor=none;" parent="1" vertex="1">
                    <mxGeometry x="732.5" y="322.5" width="60" height="30" as="geometry"/>
                </mxCell>
                <mxCell id="307" value="" style="strokeWidth=1;html=1;shape=mxgraph.flowchart.annotation_2;align=left;labelPosition=right;pointerEvents=1;rotation=90;" parent="1" vertex="1">
                    <mxGeometry x="819.75" y="289.75" width="10" height="40.5" as="geometry"/>
                </mxCell>
                <mxCell id="308" value="BLK_K" style="text;html=1;align=center;verticalAlign=middle;resizable=0;points=[];autosize=1;strokeColor=none;fillColor=none;" parent="1" vertex="1">
                    <mxGeometry x="794.75" y="280" width="60" height="30" as="geometry"/>
                </mxCell>
                <mxCell id="309" value="&lt;font style=&quot;font-size: 8px;&quot;&gt;temporal k=0&amp;nbsp;&lt;/font&gt;" style="text;html=1;align=center;verticalAlign=middle;resizable=0;points=[];autosize=1;strokeColor=none;fillColor=none;fontSize=10;" parent="1" vertex="1">
                    <mxGeometry x="403" y="280" width="70" height="30" as="geometry"/>
                </mxCell>
                <mxCell id="310" value="&lt;font style=&quot;font-size: 8px;&quot;&gt;k=1&amp;nbsp;&lt;/font&gt;" style="text;html=1;align=center;verticalAlign=middle;resizable=0;points=[];autosize=1;strokeColor=none;fillColor=none;fontSize=10;" parent="1" vertex="1">
                    <mxGeometry x="473" y="280" width="35" height="30" as="geometry"/>
                </mxCell>
                <mxCell id="311" value="" style="rounded=0;whiteSpace=wrap;html=1;fillColor=none;strokeColor=#6c8ebf;opacity=80;dashed=1;" parent="1" vertex="1">
                    <mxGeometry x="470" y="310" width="40" height="35" as="geometry"/>
                </mxCell>
            </root>
        </mxGraphModel>
    </diagram>
    <diagram name="mxint8-large-num-groups" id="_sB0PfUwpIlygInB30px">
        <mxGraphModel dx="1524" dy="774" grid="1" gridSize="5" guides="1" tooltips="1" connect="1" arrows="1" fold="1" page="1" pageScale="1" pageWidth="827" pageHeight="1169" math="0" shadow="0">
            <root>
                <mxCell id="uJDmOPZu8vUAQYBcxrss-0"/>
                <mxCell id="uJDmOPZu8vUAQYBcxrss-1" parent="uJDmOPZu8vUAQYBcxrss-0"/>
                <mxCell id="uJDmOPZu8vUAQYBcxrss-2" value="" style="rounded=0;whiteSpace=wrap;html=1;fillColor=none;" vertex="1" parent="uJDmOPZu8vUAQYBcxrss-1">
                    <mxGeometry x="430" y="310" width="130" height="110" as="geometry"/>
                </mxCell>
                <mxCell id="uJDmOPZu8vUAQYBcxrss-4" value="" style="rounded=0;whiteSpace=wrap;html=1;fillColor=none;" vertex="1" parent="uJDmOPZu8vUAQYBcxrss-1">
                    <mxGeometry x="130" y="315" width="120" height="10" as="geometry"/>
                </mxCell>
                <mxCell id="uJDmOPZu8vUAQYBcxrss-5" value="" style="endArrow=classic;html=1;" edge="1" parent="uJDmOPZu8vUAQYBcxrss-1">
                    <mxGeometry width="50" height="50" relative="1" as="geometry">
                        <mxPoint x="270" y="320" as="sourcePoint"/>
                        <mxPoint x="380" y="320" as="targetPoint"/>
                    </mxGeometry>
                </mxCell>
                <mxCell id="uJDmOPZu8vUAQYBcxrss-6" value="&lt;font style=&quot;font-size: 10px;&quot;&gt;GroupTiler = group_size: 1&lt;/font&gt;" style="text;html=1;align=center;verticalAlign=middle;resizable=0;points=[];autosize=1;strokeColor=none;fillColor=none;" vertex="1" parent="uJDmOPZu8vUAQYBcxrss-1">
                    <mxGeometry x="255" y="289.75" width="140" height="30" as="geometry"/>
                </mxCell>
                <mxCell id="uJDmOPZu8vUAQYBcxrss-7" value="" style="rounded=0;whiteSpace=wrap;html=1;fillColor=none;" vertex="1" parent="uJDmOPZu8vUAQYBcxrss-1">
                    <mxGeometry x="130" y="355" width="30" height="10" as="geometry"/>
                </mxCell>
                <mxCell id="uJDmOPZu8vUAQYBcxrss-8" value="" style="rounded=0;whiteSpace=wrap;html=1;fillColor=none;" vertex="1" parent="uJDmOPZu8vUAQYBcxrss-1">
                    <mxGeometry x="430" y="310" width="10" height="110" as="geometry"/>
                </mxCell>
                <mxCell id="uJDmOPZu8vUAQYBcxrss-9" value="" style="rounded=0;whiteSpace=wrap;html=1;fillColor=none;" vertex="1" parent="uJDmOPZu8vUAQYBcxrss-1">
                    <mxGeometry x="430" y="440" width="130" height="10" as="geometry"/>
                </mxCell>
                <mxCell id="uJDmOPZu8vUAQYBcxrss-10" value="mantissa X (uint8)" style="text;html=1;align=center;verticalAlign=middle;resizable=0;points=[];autosize=1;strokeColor=none;fillColor=none;" vertex="1" parent="uJDmOPZu8vUAQYBcxrss-1">
                    <mxGeometry x="10" y="305" width="120" height="30" as="geometry"/>
                </mxCell>
                <mxCell id="uJDmOPZu8vUAQYBcxrss-11" value="scales (uint8)" style="text;html=1;align=center;verticalAlign=middle;resizable=0;points=[];autosize=1;strokeColor=none;fillColor=none;" vertex="1" parent="uJDmOPZu8vUAQYBcxrss-1">
                    <mxGeometry x="35" y="345" width="90" height="30" as="geometry"/>
                </mxCell>
                <mxCell id="uJDmOPZu8vUAQYBcxrss-12" value="" style="rounded=0;whiteSpace=wrap;html=1;fillColor=none;" vertex="1" parent="uJDmOPZu8vUAQYBcxrss-1">
                    <mxGeometry x="440" y="310" width="10" height="110" as="geometry"/>
                </mxCell>
                <mxCell id="uJDmOPZu8vUAQYBcxrss-13" value="&lt;font style=&quot;font-size: 10px;&quot;&gt;num_groups&lt;br&gt;:= X.size() // ScaleTiler.size()&lt;/font&gt;" style="text;html=1;align=left;verticalAlign=middle;resizable=0;points=[];autosize=1;strokeColor=none;fillColor=none;" vertex="1" parent="uJDmOPZu8vUAQYBcxrss-1">
                    <mxGeometry x="430" y="238" width="150" height="45" as="geometry"/>
                </mxCell>
                <mxCell id="uJDmOPZu8vUAQYBcxrss-14" value="&lt;span style=&quot;text-align: left;&quot;&gt;&lt;font style=&quot;font-size: 10px;&quot;&gt;group_size&lt;/font&gt;&lt;/span&gt;" style="text;html=1;align=center;verticalAlign=middle;resizable=0;points=[];autosize=1;strokeColor=none;fillColor=none;" vertex="1" parent="uJDmOPZu8vUAQYBcxrss-1">
                    <mxGeometry x="355" y="352.5" width="70" height="30" as="geometry"/>
                </mxCell>
                <mxCell id="uJDmOPZu8vUAQYBcxrss-15" style="edgeStyle=none;html=1;dashed=1;endArrow=diamondThin;endFill=1;entryX=0.5;entryY=1;entryDx=0;entryDy=0;exitX=0.038;exitY=0.003;exitDx=0;exitDy=0;exitPerimeter=0;" edge="1" parent="uJDmOPZu8vUAQYBcxrss-1" source="uJDmOPZu8vUAQYBcxrss-9" target="uJDmOPZu8vUAQYBcxrss-8">
                    <mxGeometry relative="1" as="geometry">
                        <mxPoint x="420" y="435" as="sourcePoint"/>
                        <mxPoint x="435" y="430" as="targetPoint"/>
                    </mxGeometry>
                </mxCell>
                <mxCell id="uJDmOPZu8vUAQYBcxrss-16" value="" style="rounded=0;whiteSpace=wrap;html=1;fillColor=none;" vertex="1" parent="uJDmOPZu8vUAQYBcxrss-1">
                    <mxGeometry x="430" y="440" width="10" height="10" as="geometry"/>
                </mxCell>
                <mxCell id="uJDmOPZu8vUAQYBcxrss-17" value="" style="rounded=0;whiteSpace=wrap;html=1;fillColor=#dae8fc;strokeColor=#6c8ebf;opacity=60;dashed=1;" vertex="1" parent="uJDmOPZu8vUAQYBcxrss-1">
                    <mxGeometry x="430" y="440" width="10" height="10" as="geometry"/>
                </mxCell>
                <mxCell id="uJDmOPZu8vUAQYBcxrss-18" value="" style="rounded=0;whiteSpace=wrap;html=1;fillColor=none;" vertex="1" parent="uJDmOPZu8vUAQYBcxrss-1">
                    <mxGeometry x="805" y="375" width="10" height="10" as="geometry"/>
                </mxCell>
                <mxCell id="uJDmOPZu8vUAQYBcxrss-19" value="" style="rounded=0;whiteSpace=wrap;html=1;fillColor=none;" vertex="1" parent="uJDmOPZu8vUAQYBcxrss-1">
                    <mxGeometry x="815" y="375" width="10" height="10" as="geometry"/>
                </mxCell>
                <mxCell id="uJDmOPZu8vUAQYBcxrss-20" value="" style="rounded=0;whiteSpace=wrap;html=1;fillColor=none;" vertex="1" parent="uJDmOPZu8vUAQYBcxrss-1">
                    <mxGeometry x="825" y="375" width="10" height="10" as="geometry"/>
                </mxCell>
                <mxCell id="uJDmOPZu8vUAQYBcxrss-21" value="" style="rounded=0;whiteSpace=wrap;html=1;fillColor=none;" vertex="1" parent="uJDmOPZu8vUAQYBcxrss-1">
                    <mxGeometry x="835" y="375" width="10" height="10" as="geometry"/>
                </mxCell>
                <mxCell id="uJDmOPZu8vUAQYBcxrss-22" value="" style="whiteSpace=wrap;html=1;fillColor=none;" vertex="1" parent="uJDmOPZu8vUAQYBcxrss-1">
                    <mxGeometry x="805" y="320" width="10" height="35" as="geometry"/>
                </mxCell>
                <mxCell id="uJDmOPZu8vUAQYBcxrss-23" value="" style="whiteSpace=wrap;html=1;fillColor=none;" vertex="1" parent="uJDmOPZu8vUAQYBcxrss-1">
                    <mxGeometry x="815" y="320" width="10" height="35" as="geometry"/>
                </mxCell>
                <mxCell id="uJDmOPZu8vUAQYBcxrss-24" value="" style="whiteSpace=wrap;html=1;fillColor=none;" vertex="1" parent="uJDmOPZu8vUAQYBcxrss-1">
                    <mxGeometry x="825" y="320" width="10" height="35" as="geometry"/>
                </mxCell>
                <mxCell id="uJDmOPZu8vUAQYBcxrss-25" value="" style="whiteSpace=wrap;html=1;fillColor=none;" vertex="1" parent="uJDmOPZu8vUAQYBcxrss-1">
                    <mxGeometry x="835" y="320" width="10" height="35" as="geometry"/>
                </mxCell>
                <mxCell id="uJDmOPZu8vUAQYBcxrss-26" value="" style="edgeStyle=none;orthogonalLoop=1;jettySize=auto;html=1;endArrow=classic;endFill=1;" edge="1" parent="uJDmOPZu8vUAQYBcxrss-1">
                    <mxGeometry width="100" relative="1" as="geometry">
                        <mxPoint x="575" y="334.59999999999997" as="sourcePoint"/>
                        <mxPoint x="720" y="334.76" as="targetPoint"/>
                        <Array as="points"/>
                    </mxGeometry>
                </mxCell>
                <mxCell id="uJDmOPZu8vUAQYBcxrss-27" value="&lt;font style=&quot;font-size: 10px;&quot;&gt;CtaTiler &lt;br&gt;= (BLK_M, BLK_K): (1, BLK_M)&lt;/font&gt;" style="text;html=1;align=center;verticalAlign=middle;resizable=0;points=[];autosize=1;strokeColor=none;fillColor=none;" vertex="1" parent="uJDmOPZu8vUAQYBcxrss-1">
                    <mxGeometry x="565" y="290" width="160" height="45" as="geometry"/>
                </mxCell>
                <mxCell id="uJDmOPZu8vUAQYBcxrss-28" value="tile of a thread block" style="text;html=1;align=center;verticalAlign=middle;resizable=0;points=[];autosize=1;strokeColor=none;fillColor=none;" vertex="1" parent="uJDmOPZu8vUAQYBcxrss-1">
                    <mxGeometry x="760" y="390" width="130" height="30" as="geometry"/>
                </mxCell>
                <mxCell id="uJDmOPZu8vUAQYBcxrss-29" value="" style="rounded=0;whiteSpace=wrap;html=1;fillColor=none;" vertex="1" parent="uJDmOPZu8vUAQYBcxrss-1">
                    <mxGeometry x="935" y="380" width="10" height="10" as="geometry"/>
                </mxCell>
                <mxCell id="uJDmOPZu8vUAQYBcxrss-30" value="" style="rounded=0;whiteSpace=wrap;html=1;fillColor=none;" vertex="1" parent="uJDmOPZu8vUAQYBcxrss-1">
                    <mxGeometry x="945" y="380" width="10" height="10" as="geometry"/>
                </mxCell>
                <mxCell id="uJDmOPZu8vUAQYBcxrss-31" value="" style="rounded=0;whiteSpace=wrap;html=1;fillColor=none;" vertex="1" parent="uJDmOPZu8vUAQYBcxrss-1">
                    <mxGeometry x="955" y="380" width="10" height="10" as="geometry"/>
                </mxCell>
                <mxCell id="uJDmOPZu8vUAQYBcxrss-32" value="" style="rounded=0;whiteSpace=wrap;html=1;fillColor=none;" vertex="1" parent="uJDmOPZu8vUAQYBcxrss-1">
                    <mxGeometry x="965" y="380" width="10" height="10" as="geometry"/>
                </mxCell>
                <mxCell id="uJDmOPZu8vUAQYBcxrss-33" value="A thread" style="text;html=1;align=center;verticalAlign=middle;resizable=0;points=[];autosize=1;strokeColor=none;fillColor=none;opacity=60;" vertex="1" parent="uJDmOPZu8vUAQYBcxrss-1">
                    <mxGeometry x="920" y="290" width="65" height="30" as="geometry"/>
                </mxCell>
                <mxCell id="uJDmOPZu8vUAQYBcxrss-34" value="&lt;font style=&quot;font-size: 10px;&quot;&gt;partition X and scales &lt;br&gt;across thread blocks&lt;/font&gt;" style="text;html=1;align=center;verticalAlign=middle;resizable=0;points=[];autosize=1;strokeColor=none;fillColor=none;" vertex="1" parent="uJDmOPZu8vUAQYBcxrss-1">
                    <mxGeometry x="267.5" y="315" width="115" height="45" as="geometry"/>
                </mxCell>
                <mxCell id="uJDmOPZu8vUAQYBcxrss-35" value="" style="rounded=0;whiteSpace=wrap;html=1;fillColor=none;" vertex="1" parent="uJDmOPZu8vUAQYBcxrss-1">
                    <mxGeometry x="450" y="310" width="10" height="110" as="geometry"/>
                </mxCell>
                <mxCell id="uJDmOPZu8vUAQYBcxrss-36" value="" style="rounded=0;whiteSpace=wrap;html=1;fillColor=none;" vertex="1" parent="uJDmOPZu8vUAQYBcxrss-1">
                    <mxGeometry x="460" y="310" width="10" height="110" as="geometry"/>
                </mxCell>
                <mxCell id="uJDmOPZu8vUAQYBcxrss-37" value="" style="rounded=0;whiteSpace=wrap;html=1;fillColor=#dae8fc;strokeColor=#6c8ebf;opacity=90;dashed=1;glass=0;" vertex="1" parent="uJDmOPZu8vUAQYBcxrss-1">
                    <mxGeometry x="430" y="310" width="40" height="35" as="geometry"/>
                </mxCell>
                <mxCell id="uJDmOPZu8vUAQYBcxrss-38" style="edgeStyle=none;html=1;dashed=1;endArrow=diamondThin;endFill=1;entryX=0.5;entryY=1;entryDx=0;entryDy=0;exitX=0.038;exitY=0.003;exitDx=0;exitDy=0;exitPerimeter=0;" edge="1" parent="uJDmOPZu8vUAQYBcxrss-1">
                    <mxGeometry relative="1" as="geometry">
                        <mxPoint x="444.96999999999997" y="440" as="sourcePoint"/>
                        <mxPoint x="445.03" y="419.97" as="targetPoint"/>
                    </mxGeometry>
                </mxCell>
                <mxCell id="uJDmOPZu8vUAQYBcxrss-39" value="" style="rounded=0;whiteSpace=wrap;html=1;fillColor=none;" vertex="1" parent="uJDmOPZu8vUAQYBcxrss-1">
                    <mxGeometry x="440" y="440" width="10" height="10" as="geometry"/>
                </mxCell>
                <mxCell id="uJDmOPZu8vUAQYBcxrss-40" value="" style="rounded=0;whiteSpace=wrap;html=1;fillColor=none;" vertex="1" parent="uJDmOPZu8vUAQYBcxrss-1">
                    <mxGeometry x="450" y="440" width="10" height="10" as="geometry"/>
                </mxCell>
                <mxCell id="uJDmOPZu8vUAQYBcxrss-41" value="" style="rounded=0;whiteSpace=wrap;html=1;fillColor=none;" vertex="1" parent="uJDmOPZu8vUAQYBcxrss-1">
                    <mxGeometry x="460" y="440" width="10" height="10" as="geometry"/>
                </mxCell>
                <mxCell id="uJDmOPZu8vUAQYBcxrss-42" value="" style="rounded=0;whiteSpace=wrap;html=1;fillColor=#dae8fc;strokeColor=#6c8ebf;opacity=60;dashed=1;" vertex="1" parent="uJDmOPZu8vUAQYBcxrss-1">
                    <mxGeometry x="440" y="440" width="10" height="10" as="geometry"/>
                </mxCell>
                <mxCell id="uJDmOPZu8vUAQYBcxrss-43" value="" style="rounded=0;whiteSpace=wrap;html=1;fillColor=#dae8fc;strokeColor=#6c8ebf;opacity=60;dashed=1;" vertex="1" parent="uJDmOPZu8vUAQYBcxrss-1">
                    <mxGeometry x="450" y="440" width="10" height="10" as="geometry"/>
                </mxCell>
                <mxCell id="uJDmOPZu8vUAQYBcxrss-44" value="" style="rounded=0;whiteSpace=wrap;html=1;fillColor=#dae8fc;strokeColor=#6c8ebf;opacity=60;dashed=1;" vertex="1" parent="uJDmOPZu8vUAQYBcxrss-1">
                    <mxGeometry x="460" y="440" width="10" height="10" as="geometry"/>
                </mxCell>
                <mxCell id="uJDmOPZu8vUAQYBcxrss-45" value="" style="rounded=0;whiteSpace=wrap;html=1;fillColor=#dae8fc;strokeColor=#6c8ebf;opacity=60;dashed=1;" vertex="1" parent="uJDmOPZu8vUAQYBcxrss-1">
                    <mxGeometry x="805" y="320" width="40" height="35" as="geometry"/>
                </mxCell>
                <mxCell id="uJDmOPZu8vUAQYBcxrss-46" style="edgeStyle=none;html=1;dashed=1;endArrow=diamondThin;endFill=1;entryX=0.5;entryY=1;entryDx=0;entryDy=0;exitX=0.038;exitY=0.003;exitDx=0;exitDy=0;exitPerimeter=0;" edge="1" parent="uJDmOPZu8vUAQYBcxrss-1">
                    <mxGeometry relative="1" as="geometry">
                        <mxPoint x="809.89" y="375.0300000000001" as="sourcePoint"/>
                        <mxPoint x="809.9499999999999" y="355" as="targetPoint"/>
                    </mxGeometry>
                </mxCell>
                <mxCell id="uJDmOPZu8vUAQYBcxrss-47" style="edgeStyle=none;html=1;dashed=1;endArrow=diamondThin;endFill=1;entryX=0.5;entryY=1;entryDx=0;entryDy=0;exitX=0.038;exitY=0.003;exitDx=0;exitDy=0;exitPerimeter=0;" edge="1" parent="uJDmOPZu8vUAQYBcxrss-1">
                    <mxGeometry relative="1" as="geometry">
                        <mxPoint x="819.89" y="375.0300000000001" as="sourcePoint"/>
                        <mxPoint x="819.9499999999999" y="355" as="targetPoint"/>
                    </mxGeometry>
                </mxCell>
                <mxCell id="uJDmOPZu8vUAQYBcxrss-48" style="edgeStyle=none;html=1;dashed=1;endArrow=diamondThin;endFill=1;entryX=0.5;entryY=1;entryDx=0;entryDy=0;exitX=0.038;exitY=0.003;exitDx=0;exitDy=0;exitPerimeter=0;" edge="1" parent="uJDmOPZu8vUAQYBcxrss-1">
                    <mxGeometry relative="1" as="geometry">
                        <mxPoint x="829.89" y="375.0300000000001" as="sourcePoint"/>
                        <mxPoint x="829.9499999999999" y="355" as="targetPoint"/>
                    </mxGeometry>
                </mxCell>
                <mxCell id="uJDmOPZu8vUAQYBcxrss-49" style="edgeStyle=none;html=1;dashed=1;endArrow=diamondThin;endFill=1;entryX=0.5;entryY=1;entryDx=0;entryDy=0;exitX=0.038;exitY=0.003;exitDx=0;exitDy=0;exitPerimeter=0;" edge="1" parent="uJDmOPZu8vUAQYBcxrss-1">
                    <mxGeometry relative="1" as="geometry">
                        <mxPoint x="839.89" y="375.0000000000001" as="sourcePoint"/>
                        <mxPoint x="839.9499999999999" y="354.97" as="targetPoint"/>
                    </mxGeometry>
                </mxCell>
                <mxCell id="uJDmOPZu8vUAQYBcxrss-50" value="" style="whiteSpace=wrap;html=1;fillColor=none;" vertex="1" parent="uJDmOPZu8vUAQYBcxrss-1">
                    <mxGeometry x="935" y="320" width="10" height="35" as="geometry"/>
                </mxCell>
                <mxCell id="uJDmOPZu8vUAQYBcxrss-51" value="" style="whiteSpace=wrap;html=1;fillColor=none;" vertex="1" parent="uJDmOPZu8vUAQYBcxrss-1">
                    <mxGeometry x="945" y="320" width="10" height="35" as="geometry"/>
                </mxCell>
                <mxCell id="uJDmOPZu8vUAQYBcxrss-52" value="" style="whiteSpace=wrap;html=1;fillColor=none;" vertex="1" parent="uJDmOPZu8vUAQYBcxrss-1">
                    <mxGeometry x="955" y="320" width="10" height="35" as="geometry"/>
                </mxCell>
                <mxCell id="uJDmOPZu8vUAQYBcxrss-53" value="" style="whiteSpace=wrap;html=1;fillColor=none;" vertex="1" parent="uJDmOPZu8vUAQYBcxrss-1">
                    <mxGeometry x="965" y="320" width="10" height="35" as="geometry"/>
                </mxCell>
                <mxCell id="uJDmOPZu8vUAQYBcxrss-54" style="edgeStyle=none;html=1;exitX=0;exitY=0.5;exitDx=0;exitDy=0;entryX=0.988;entryY=0.549;entryDx=0;entryDy=0;entryPerimeter=0;endArrow=none;endFill=0;dashed=1;dashPattern=1 2;" edge="1" parent="uJDmOPZu8vUAQYBcxrss-1" source="uJDmOPZu8vUAQYBcxrss-55" target="uJDmOPZu8vUAQYBcxrss-58">
                    <mxGeometry relative="1" as="geometry"/>
                </mxCell>
                <mxCell id="uJDmOPZu8vUAQYBcxrss-55" value="" style="rounded=0;whiteSpace=wrap;html=1;fillColor=#f8cecc;strokeColor=#b85450;opacity=60;" vertex="1" parent="uJDmOPZu8vUAQYBcxrss-1">
                    <mxGeometry x="935" y="320" width="10" height="5" as="geometry"/>
                </mxCell>
                <mxCell id="uJDmOPZu8vUAQYBcxrss-56" value="" style="rounded=0;whiteSpace=wrap;html=1;fillColor=#f8cecc;strokeColor=#b85450;opacity=60;sketch=1;curveFitting=1;jiggle=1;fillStyle=solid;" vertex="1" parent="uJDmOPZu8vUAQYBcxrss-1">
                    <mxGeometry x="935" y="380" width="10" height="10" as="geometry"/>
                </mxCell>
                <mxCell id="uJDmOPZu8vUAQYBcxrss-57" value="bf16 reg" style="text;html=1;align=center;verticalAlign=middle;resizable=0;points=[];autosize=1;strokeColor=none;fillColor=none;" vertex="1" parent="uJDmOPZu8vUAQYBcxrss-1">
                    <mxGeometry x="917.5" y="390" width="65" height="30" as="geometry"/>
                </mxCell>
                <mxCell id="uJDmOPZu8vUAQYBcxrss-58" value="&lt;font style=&quot;font-size: 8px;&quot;&gt;thread 0&lt;/font&gt;" style="text;html=1;align=center;verticalAlign=middle;resizable=0;points=[];autosize=1;strokeColor=none;fillColor=none;" vertex="1" parent="uJDmOPZu8vUAQYBcxrss-1">
                    <mxGeometry x="875" y="307.5" width="50" height="30" as="geometry"/>
                </mxCell>
                <mxCell id="uJDmOPZu8vUAQYBcxrss-59" value="&lt;font style=&quot;font-size: 8px;&quot;&gt;thread 1&lt;/font&gt;" style="text;html=1;align=center;verticalAlign=middle;resizable=0;points=[];autosize=1;strokeColor=none;fillColor=none;" vertex="1" parent="uJDmOPZu8vUAQYBcxrss-1">
                    <mxGeometry x="875" y="327.5" width="50" height="30" as="geometry"/>
                </mxCell>
                <mxCell id="uJDmOPZu8vUAQYBcxrss-60" style="edgeStyle=none;html=1;exitX=0;exitY=0.5;exitDx=0;exitDy=0;entryX=0.996;entryY=0.54;entryDx=0;entryDy=0;entryPerimeter=0;endArrow=none;endFill=0;dashed=1;dashPattern=1 2;" edge="1" parent="uJDmOPZu8vUAQYBcxrss-1" source="uJDmOPZu8vUAQYBcxrss-61" target="uJDmOPZu8vUAQYBcxrss-59">
                    <mxGeometry relative="1" as="geometry"/>
                </mxCell>
                <mxCell id="uJDmOPZu8vUAQYBcxrss-61" value="" style="rounded=0;whiteSpace=wrap;html=1;fillColor=#e1d5e7;strokeColor=#9673a6;opacity=60;" vertex="1" parent="uJDmOPZu8vUAQYBcxrss-1">
                    <mxGeometry x="935" y="325" width="10" height="5" as="geometry"/>
                </mxCell>
                <mxCell id="uJDmOPZu8vUAQYBcxrss-62" value="" style="rounded=0;whiteSpace=wrap;html=1;fillColor=#e1d5e7;strokeColor=#9673a6;opacity=60;sketch=1;curveFitting=1;jiggle=1;fillStyle=solid;" vertex="1" parent="uJDmOPZu8vUAQYBcxrss-1">
                    <mxGeometry x="935" y="380" width="10" height="10" as="geometry"/>
                </mxCell>
                <mxCell id="uJDmOPZu8vUAQYBcxrss-63" value="column-major mX = (_group_size, num_groups) : (_1, _block_size)" style="text;html=1;align=center;verticalAlign=middle;resizable=0;points=[];autosize=1;strokeColor=none;fillColor=none;fontSize=8;sketch=1;jiggle=1;fillStyle=solid;" vertex="1" parent="uJDmOPZu8vUAQYBcxrss-1">
                    <mxGeometry x="375" y="454.99999999999994" width="260" height="25" as="geometry"/>
                </mxCell>
                <mxCell id="uJDmOPZu8vUAQYBcxrss-64" style="edgeStyle=none;html=1;exitX=0;exitY=0.5;exitDx=0;exitDy=0;entryX=0.987;entryY=0.549;entryDx=0;entryDy=0;entryPerimeter=0;endArrow=none;endFill=0;dashed=1;dashPattern=1 2;" edge="1" parent="uJDmOPZu8vUAQYBcxrss-1" source="uJDmOPZu8vUAQYBcxrss-65" target="uJDmOPZu8vUAQYBcxrss-58">
                    <mxGeometry relative="1" as="geometry"/>
                </mxCell>
                <mxCell id="uJDmOPZu8vUAQYBcxrss-65" value="" style="rounded=0;whiteSpace=wrap;html=1;fillColor=#f8cecc;strokeColor=#b85450;opacity=60;" vertex="1" parent="uJDmOPZu8vUAQYBcxrss-1">
                    <mxGeometry x="935" y="340" width="10" height="5" as="geometry"/>
                </mxCell>
                <mxCell id="uJDmOPZu8vUAQYBcxrss-66" style="edgeStyle=none;html=1;exitX=0;exitY=0.5;exitDx=0;exitDy=0;entryX=0.994;entryY=0.536;entryDx=0;entryDy=0;entryPerimeter=0;endArrow=none;endFill=0;dashed=1;dashPattern=1 2;" edge="1" parent="uJDmOPZu8vUAQYBcxrss-1" source="uJDmOPZu8vUAQYBcxrss-67" target="uJDmOPZu8vUAQYBcxrss-59">
                    <mxGeometry relative="1" as="geometry"/>
                </mxCell>
                <mxCell id="uJDmOPZu8vUAQYBcxrss-67" value="" style="rounded=0;whiteSpace=wrap;html=1;fillColor=#e1d5e7;strokeColor=#9673a6;opacity=60;" vertex="1" parent="uJDmOPZu8vUAQYBcxrss-1">
                    <mxGeometry x="935" y="345" width="10" height="5" as="geometry"/>
                </mxCell>
                <mxCell id="uJDmOPZu8vUAQYBcxrss-68" value="t0" style="whiteSpace=wrap;html=1;fillColor=none;" vertex="1" parent="uJDmOPZu8vUAQYBcxrss-1">
                    <mxGeometry x="902.5" y="617" width="20" height="20" as="geometry"/>
                </mxCell>
                <mxCell id="uJDmOPZu8vUAQYBcxrss-69" value="t4" style="whiteSpace=wrap;html=1;fillColor=none;" vertex="1" parent="uJDmOPZu8vUAQYBcxrss-1">
                    <mxGeometry x="922.5" y="617" width="20" height="20" as="geometry"/>
                </mxCell>
                <mxCell id="uJDmOPZu8vUAQYBcxrss-70" value="" style="whiteSpace=wrap;html=1;fillColor=none;" vertex="1" parent="uJDmOPZu8vUAQYBcxrss-1">
                    <mxGeometry x="942.5" y="617" width="20" height="20" as="geometry"/>
                </mxCell>
                <mxCell id="uJDmOPZu8vUAQYBcxrss-71" value="" style="whiteSpace=wrap;html=1;fillColor=none;" vertex="1" parent="uJDmOPZu8vUAQYBcxrss-1">
                    <mxGeometry x="962.5" y="617" width="20" height="20" as="geometry"/>
                </mxCell>
                <mxCell id="uJDmOPZu8vUAQYBcxrss-72" value="" style="whiteSpace=wrap;html=1;fillColor=none;" vertex="1" parent="uJDmOPZu8vUAQYBcxrss-1">
                    <mxGeometry x="982.5" y="617" width="20" height="20" as="geometry"/>
                </mxCell>
                <mxCell id="uJDmOPZu8vUAQYBcxrss-73" value="" style="whiteSpace=wrap;html=1;fillColor=none;" vertex="1" parent="uJDmOPZu8vUAQYBcxrss-1">
                    <mxGeometry x="1002.5" y="617" width="20" height="20" as="geometry"/>
                </mxCell>
                <mxCell id="uJDmOPZu8vUAQYBcxrss-74" value="" style="whiteSpace=wrap;html=1;fillColor=none;" vertex="1" parent="uJDmOPZu8vUAQYBcxrss-1">
                    <mxGeometry x="1022.5" y="617" width="20" height="20" as="geometry"/>
                </mxCell>
                <mxCell id="uJDmOPZu8vUAQYBcxrss-75" value="" style="whiteSpace=wrap;html=1;fillColor=none;" vertex="1" parent="uJDmOPZu8vUAQYBcxrss-1">
                    <mxGeometry x="1042.5" y="617" width="20" height="20" as="geometry"/>
                </mxCell>
                <mxCell id="uJDmOPZu8vUAQYBcxrss-76" value="t1" style="whiteSpace=wrap;html=1;fillColor=none;" vertex="1" parent="uJDmOPZu8vUAQYBcxrss-1">
                    <mxGeometry x="902.5" y="637" width="20" height="20" as="geometry"/>
                </mxCell>
                <mxCell id="uJDmOPZu8vUAQYBcxrss-77" value="t5" style="whiteSpace=wrap;html=1;fillColor=none;" vertex="1" parent="uJDmOPZu8vUAQYBcxrss-1">
                    <mxGeometry x="922.5" y="637" width="20" height="20" as="geometry"/>
                </mxCell>
                <mxCell id="uJDmOPZu8vUAQYBcxrss-78" value="" style="whiteSpace=wrap;html=1;fillColor=none;" vertex="1" parent="uJDmOPZu8vUAQYBcxrss-1">
                    <mxGeometry x="942.5" y="637" width="20" height="20" as="geometry"/>
                </mxCell>
                <mxCell id="uJDmOPZu8vUAQYBcxrss-79" value="" style="whiteSpace=wrap;html=1;fillColor=none;" vertex="1" parent="uJDmOPZu8vUAQYBcxrss-1">
                    <mxGeometry x="962.5" y="637" width="20" height="20" as="geometry"/>
                </mxCell>
                <mxCell id="uJDmOPZu8vUAQYBcxrss-80" value="" style="whiteSpace=wrap;html=1;fillColor=none;" vertex="1" parent="uJDmOPZu8vUAQYBcxrss-1">
                    <mxGeometry x="982.5" y="637" width="20" height="20" as="geometry"/>
                </mxCell>
                <mxCell id="uJDmOPZu8vUAQYBcxrss-81" value="" style="whiteSpace=wrap;html=1;fillColor=none;" vertex="1" parent="uJDmOPZu8vUAQYBcxrss-1">
                    <mxGeometry x="1002.5" y="637" width="20" height="20" as="geometry"/>
                </mxCell>
                <mxCell id="uJDmOPZu8vUAQYBcxrss-82" value="" style="whiteSpace=wrap;html=1;fillColor=none;" vertex="1" parent="uJDmOPZu8vUAQYBcxrss-1">
                    <mxGeometry x="1022.5" y="637" width="20" height="20" as="geometry"/>
                </mxCell>
                <mxCell id="uJDmOPZu8vUAQYBcxrss-83" value="" style="whiteSpace=wrap;html=1;fillColor=none;" vertex="1" parent="uJDmOPZu8vUAQYBcxrss-1">
                    <mxGeometry x="1042.5" y="637" width="20" height="20" as="geometry"/>
                </mxCell>
                <mxCell id="uJDmOPZu8vUAQYBcxrss-84" value="t2" style="whiteSpace=wrap;html=1;fillColor=none;" vertex="1" parent="uJDmOPZu8vUAQYBcxrss-1">
                    <mxGeometry x="902.5" y="657" width="20" height="20" as="geometry"/>
                </mxCell>
                <mxCell id="uJDmOPZu8vUAQYBcxrss-85" value="" style="whiteSpace=wrap;html=1;fillColor=none;" vertex="1" parent="uJDmOPZu8vUAQYBcxrss-1">
                    <mxGeometry x="922.5" y="657" width="20" height="20" as="geometry"/>
                </mxCell>
                <mxCell id="uJDmOPZu8vUAQYBcxrss-86" value="" style="whiteSpace=wrap;html=1;fillColor=none;" vertex="1" parent="uJDmOPZu8vUAQYBcxrss-1">
                    <mxGeometry x="942.5" y="657" width="20" height="20" as="geometry"/>
                </mxCell>
                <mxCell id="uJDmOPZu8vUAQYBcxrss-87" value="" style="whiteSpace=wrap;html=1;fillColor=none;" vertex="1" parent="uJDmOPZu8vUAQYBcxrss-1">
                    <mxGeometry x="962.5" y="657" width="20" height="20" as="geometry"/>
                </mxCell>
                <mxCell id="uJDmOPZu8vUAQYBcxrss-88" value="" style="whiteSpace=wrap;html=1;fillColor=none;" vertex="1" parent="uJDmOPZu8vUAQYBcxrss-1">
                    <mxGeometry x="982.5" y="657" width="20" height="20" as="geometry"/>
                </mxCell>
                <mxCell id="uJDmOPZu8vUAQYBcxrss-89" value="" style="whiteSpace=wrap;html=1;fillColor=none;" vertex="1" parent="uJDmOPZu8vUAQYBcxrss-1">
                    <mxGeometry x="1002.5" y="657" width="20" height="20" as="geometry"/>
                </mxCell>
                <mxCell id="uJDmOPZu8vUAQYBcxrss-90" value="" style="whiteSpace=wrap;html=1;fillColor=none;" vertex="1" parent="uJDmOPZu8vUAQYBcxrss-1">
                    <mxGeometry x="1022.5" y="657" width="20" height="20" as="geometry"/>
                </mxCell>
                <mxCell id="uJDmOPZu8vUAQYBcxrss-91" value="" style="whiteSpace=wrap;html=1;fillColor=none;" vertex="1" parent="uJDmOPZu8vUAQYBcxrss-1">
                    <mxGeometry x="1042.5" y="657" width="20" height="20" as="geometry"/>
                </mxCell>
                <mxCell id="uJDmOPZu8vUAQYBcxrss-92" value="t3" style="whiteSpace=wrap;html=1;fillColor=none;" vertex="1" parent="uJDmOPZu8vUAQYBcxrss-1">
                    <mxGeometry x="902.5" y="677" width="20" height="20" as="geometry"/>
                </mxCell>
                <mxCell id="uJDmOPZu8vUAQYBcxrss-93" value="" style="whiteSpace=wrap;html=1;fillColor=none;" vertex="1" parent="uJDmOPZu8vUAQYBcxrss-1">
                    <mxGeometry x="922.5" y="677" width="20" height="20" as="geometry"/>
                </mxCell>
                <mxCell id="uJDmOPZu8vUAQYBcxrss-94" value="" style="whiteSpace=wrap;html=1;fillColor=none;" vertex="1" parent="uJDmOPZu8vUAQYBcxrss-1">
                    <mxGeometry x="942.5" y="677" width="20" height="20" as="geometry"/>
                </mxCell>
                <mxCell id="uJDmOPZu8vUAQYBcxrss-95" value="" style="whiteSpace=wrap;html=1;fillColor=none;" vertex="1" parent="uJDmOPZu8vUAQYBcxrss-1">
                    <mxGeometry x="962.5" y="677" width="20" height="20" as="geometry"/>
                </mxCell>
                <mxCell id="uJDmOPZu8vUAQYBcxrss-96" value="" style="whiteSpace=wrap;html=1;fillColor=none;" vertex="1" parent="uJDmOPZu8vUAQYBcxrss-1">
                    <mxGeometry x="982.5" y="677" width="20" height="20" as="geometry"/>
                </mxCell>
                <mxCell id="uJDmOPZu8vUAQYBcxrss-97" value="" style="whiteSpace=wrap;html=1;fillColor=none;" vertex="1" parent="uJDmOPZu8vUAQYBcxrss-1">
                    <mxGeometry x="1002.5" y="677" width="20" height="20" as="geometry"/>
                </mxCell>
                <mxCell id="uJDmOPZu8vUAQYBcxrss-98" value="" style="whiteSpace=wrap;html=1;fillColor=none;" vertex="1" parent="uJDmOPZu8vUAQYBcxrss-1">
                    <mxGeometry x="1022.5" y="677" width="20" height="20" as="geometry"/>
                </mxCell>
                <mxCell id="uJDmOPZu8vUAQYBcxrss-99" value="t31" style="whiteSpace=wrap;html=1;fillColor=none;" vertex="1" parent="uJDmOPZu8vUAQYBcxrss-1">
                    <mxGeometry x="1042.5" y="677" width="20" height="20" as="geometry"/>
                </mxCell>
                <mxCell id="uJDmOPZu8vUAQYBcxrss-100" value="t0" style="whiteSpace=wrap;html=1;fillColor=none;dashed=1;dashPattern=1 2;" vertex="1" parent="uJDmOPZu8vUAQYBcxrss-1">
                    <mxGeometry x="902.5" y="697" width="20" height="20" as="geometry"/>
                </mxCell>
                <mxCell id="uJDmOPZu8vUAQYBcxrss-101" value="t4" style="whiteSpace=wrap;html=1;fillColor=none;dashed=1;dashPattern=1 2;" vertex="1" parent="uJDmOPZu8vUAQYBcxrss-1">
                    <mxGeometry x="922.5" y="697" width="20" height="20" as="geometry"/>
                </mxCell>
                <mxCell id="uJDmOPZu8vUAQYBcxrss-102" value="" style="whiteSpace=wrap;html=1;fillColor=none;dashed=1;dashPattern=1 2;" vertex="1" parent="uJDmOPZu8vUAQYBcxrss-1">
                    <mxGeometry x="942.5" y="697" width="20" height="20" as="geometry"/>
                </mxCell>
                <mxCell id="uJDmOPZu8vUAQYBcxrss-103" value="" style="whiteSpace=wrap;html=1;fillColor=none;dashed=1;dashPattern=1 2;" vertex="1" parent="uJDmOPZu8vUAQYBcxrss-1">
                    <mxGeometry x="962.5" y="697" width="20" height="20" as="geometry"/>
                </mxCell>
                <mxCell id="uJDmOPZu8vUAQYBcxrss-104" value="" style="whiteSpace=wrap;html=1;fillColor=none;dashed=1;dashPattern=1 2;" vertex="1" parent="uJDmOPZu8vUAQYBcxrss-1">
                    <mxGeometry x="982.5" y="697" width="20" height="20" as="geometry"/>
                </mxCell>
                <mxCell id="uJDmOPZu8vUAQYBcxrss-105" value="" style="whiteSpace=wrap;html=1;fillColor=none;dashed=1;dashPattern=1 2;" vertex="1" parent="uJDmOPZu8vUAQYBcxrss-1">
                    <mxGeometry x="1002.5" y="697" width="20" height="20" as="geometry"/>
                </mxCell>
                <mxCell id="uJDmOPZu8vUAQYBcxrss-106" value="" style="whiteSpace=wrap;html=1;fillColor=none;dashed=1;dashPattern=1 2;" vertex="1" parent="uJDmOPZu8vUAQYBcxrss-1">
                    <mxGeometry x="1022.5" y="697" width="20" height="20" as="geometry"/>
                </mxCell>
                <mxCell id="uJDmOPZu8vUAQYBcxrss-107" value="" style="whiteSpace=wrap;html=1;fillColor=none;dashed=1;dashPattern=1 2;" vertex="1" parent="uJDmOPZu8vUAQYBcxrss-1">
                    <mxGeometry x="1042.5" y="697" width="20" height="20" as="geometry"/>
                </mxCell>
                <mxCell id="uJDmOPZu8vUAQYBcxrss-108" value="t1" style="whiteSpace=wrap;html=1;fillColor=none;dashed=1;dashPattern=1 2;" vertex="1" parent="uJDmOPZu8vUAQYBcxrss-1">
                    <mxGeometry x="902.5" y="717" width="20" height="20" as="geometry"/>
                </mxCell>
                <mxCell id="uJDmOPZu8vUAQYBcxrss-109" value="t5" style="whiteSpace=wrap;html=1;fillColor=none;dashed=1;dashPattern=1 2;" vertex="1" parent="uJDmOPZu8vUAQYBcxrss-1">
                    <mxGeometry x="922.5" y="717" width="20" height="20" as="geometry"/>
                </mxCell>
                <mxCell id="uJDmOPZu8vUAQYBcxrss-110" value="" style="whiteSpace=wrap;html=1;fillColor=none;dashed=1;dashPattern=1 2;" vertex="1" parent="uJDmOPZu8vUAQYBcxrss-1">
                    <mxGeometry x="942.5" y="717" width="20" height="20" as="geometry"/>
                </mxCell>
                <mxCell id="uJDmOPZu8vUAQYBcxrss-111" value="" style="whiteSpace=wrap;html=1;fillColor=none;dashed=1;dashPattern=1 2;" vertex="1" parent="uJDmOPZu8vUAQYBcxrss-1">
                    <mxGeometry x="962.5" y="717" width="20" height="20" as="geometry"/>
                </mxCell>
                <mxCell id="uJDmOPZu8vUAQYBcxrss-112" value="" style="whiteSpace=wrap;html=1;fillColor=none;dashed=1;dashPattern=1 2;" vertex="1" parent="uJDmOPZu8vUAQYBcxrss-1">
                    <mxGeometry x="982.5" y="717" width="20" height="20" as="geometry"/>
                </mxCell>
                <mxCell id="uJDmOPZu8vUAQYBcxrss-113" value="" style="whiteSpace=wrap;html=1;fillColor=none;dashed=1;dashPattern=1 2;" vertex="1" parent="uJDmOPZu8vUAQYBcxrss-1">
                    <mxGeometry x="1002.5" y="717" width="20" height="20" as="geometry"/>
                </mxCell>
                <mxCell id="uJDmOPZu8vUAQYBcxrss-114" value="" style="whiteSpace=wrap;html=1;fillColor=none;dashed=1;dashPattern=1 2;" vertex="1" parent="uJDmOPZu8vUAQYBcxrss-1">
                    <mxGeometry x="1022.5" y="717" width="20" height="20" as="geometry"/>
                </mxCell>
                <mxCell id="uJDmOPZu8vUAQYBcxrss-115" value="" style="whiteSpace=wrap;html=1;fillColor=none;dashed=1;dashPattern=1 2;" vertex="1" parent="uJDmOPZu8vUAQYBcxrss-1">
                    <mxGeometry x="1042.5" y="717" width="20" height="20" as="geometry"/>
                </mxCell>
                <mxCell id="uJDmOPZu8vUAQYBcxrss-116" value="t2" style="whiteSpace=wrap;html=1;fillColor=none;dashed=1;dashPattern=1 2;" vertex="1" parent="uJDmOPZu8vUAQYBcxrss-1">
                    <mxGeometry x="902.5" y="737" width="20" height="20" as="geometry"/>
                </mxCell>
                <mxCell id="uJDmOPZu8vUAQYBcxrss-117" value="" style="whiteSpace=wrap;html=1;fillColor=none;dashed=1;dashPattern=1 2;" vertex="1" parent="uJDmOPZu8vUAQYBcxrss-1">
                    <mxGeometry x="922.5" y="737" width="20" height="20" as="geometry"/>
                </mxCell>
                <mxCell id="uJDmOPZu8vUAQYBcxrss-118" value="" style="whiteSpace=wrap;html=1;fillColor=none;dashed=1;dashPattern=1 2;" vertex="1" parent="uJDmOPZu8vUAQYBcxrss-1">
                    <mxGeometry x="942.5" y="737" width="20" height="20" as="geometry"/>
                </mxCell>
                <mxCell id="uJDmOPZu8vUAQYBcxrss-119" value="" style="whiteSpace=wrap;html=1;fillColor=none;dashed=1;dashPattern=1 2;" vertex="1" parent="uJDmOPZu8vUAQYBcxrss-1">
                    <mxGeometry x="962.5" y="737" width="20" height="20" as="geometry"/>
                </mxCell>
                <mxCell id="uJDmOPZu8vUAQYBcxrss-120" value="" style="whiteSpace=wrap;html=1;fillColor=none;dashed=1;dashPattern=1 2;" vertex="1" parent="uJDmOPZu8vUAQYBcxrss-1">
                    <mxGeometry x="982.5" y="737" width="20" height="20" as="geometry"/>
                </mxCell>
                <mxCell id="uJDmOPZu8vUAQYBcxrss-121" value="" style="whiteSpace=wrap;html=1;fillColor=none;dashed=1;dashPattern=1 2;" vertex="1" parent="uJDmOPZu8vUAQYBcxrss-1">
                    <mxGeometry x="1002.5" y="737" width="20" height="20" as="geometry"/>
                </mxCell>
                <mxCell id="uJDmOPZu8vUAQYBcxrss-122" value="" style="whiteSpace=wrap;html=1;fillColor=none;dashed=1;dashPattern=1 2;" vertex="1" parent="uJDmOPZu8vUAQYBcxrss-1">
                    <mxGeometry x="1022.5" y="737" width="20" height="20" as="geometry"/>
                </mxCell>
                <mxCell id="uJDmOPZu8vUAQYBcxrss-123" value="" style="whiteSpace=wrap;html=1;fillColor=none;dashed=1;dashPattern=1 2;" vertex="1" parent="uJDmOPZu8vUAQYBcxrss-1">
                    <mxGeometry x="1042.5" y="737" width="20" height="20" as="geometry"/>
                </mxCell>
                <mxCell id="uJDmOPZu8vUAQYBcxrss-124" value="t3" style="whiteSpace=wrap;html=1;fillColor=none;dashed=1;dashPattern=1 2;" vertex="1" parent="uJDmOPZu8vUAQYBcxrss-1">
                    <mxGeometry x="902.5" y="757" width="20" height="20" as="geometry"/>
                </mxCell>
                <mxCell id="uJDmOPZu8vUAQYBcxrss-125" value="" style="whiteSpace=wrap;html=1;fillColor=none;dashed=1;dashPattern=1 2;" vertex="1" parent="uJDmOPZu8vUAQYBcxrss-1">
                    <mxGeometry x="922.5" y="757" width="20" height="20" as="geometry"/>
                </mxCell>
                <mxCell id="uJDmOPZu8vUAQYBcxrss-126" value="" style="whiteSpace=wrap;html=1;fillColor=none;dashed=1;dashPattern=1 2;" vertex="1" parent="uJDmOPZu8vUAQYBcxrss-1">
                    <mxGeometry x="942.5" y="757" width="20" height="20" as="geometry"/>
                </mxCell>
                <mxCell id="uJDmOPZu8vUAQYBcxrss-127" value="" style="whiteSpace=wrap;html=1;fillColor=none;dashed=1;dashPattern=1 2;" vertex="1" parent="uJDmOPZu8vUAQYBcxrss-1">
                    <mxGeometry x="962.5" y="757" width="20" height="20" as="geometry"/>
                </mxCell>
                <mxCell id="uJDmOPZu8vUAQYBcxrss-128" value="" style="whiteSpace=wrap;html=1;fillColor=none;dashed=1;dashPattern=1 2;" vertex="1" parent="uJDmOPZu8vUAQYBcxrss-1">
                    <mxGeometry x="982.5" y="757" width="20" height="20" as="geometry"/>
                </mxCell>
                <mxCell id="uJDmOPZu8vUAQYBcxrss-129" value="" style="whiteSpace=wrap;html=1;fillColor=none;dashed=1;dashPattern=1 2;" vertex="1" parent="uJDmOPZu8vUAQYBcxrss-1">
                    <mxGeometry x="1002.5" y="757" width="20" height="20" as="geometry"/>
                </mxCell>
                <mxCell id="uJDmOPZu8vUAQYBcxrss-130" value="" style="whiteSpace=wrap;html=1;fillColor=none;dashed=1;dashPattern=1 2;" vertex="1" parent="uJDmOPZu8vUAQYBcxrss-1">
                    <mxGeometry x="1022.5" y="757" width="20" height="20" as="geometry"/>
                </mxCell>
                <mxCell id="uJDmOPZu8vUAQYBcxrss-131" value="t31" style="whiteSpace=wrap;html=1;fillColor=none;dashed=1;dashPattern=1 2;" vertex="1" parent="uJDmOPZu8vUAQYBcxrss-1">
                    <mxGeometry x="1042.5" y="757" width="20" height="20" as="geometry"/>
                </mxCell>
                <mxCell id="uJDmOPZu8vUAQYBcxrss-132" value="group_size = 8, BLK_M = 8, BLK = 128&lt;br&gt;group_size = 16, BLK_M = 16, BLK = 64&lt;br&gt;group_size = 32, BLK_M = 32, BLK = 32&lt;br&gt;group_size = 64, BLK_M = 64, BLK = 16&lt;br&gt;group_size = 128, BLK_M = 64, BLK = 8&lt;br&gt;larger&amp;nbsp; &amp;nbsp; &amp;nbsp; &amp;nbsp; &amp;nbsp; &amp;nbsp; &amp;nbsp; &amp;nbsp; &amp;nbsp; &amp;nbsp; &amp;nbsp;BLK_M = 128, BLK = 8" style="text;html=1;align=left;verticalAlign=middle;resizable=0;points=[];autosize=1;strokeColor=none;fillColor=none;" vertex="1" parent="uJDmOPZu8vUAQYBcxrss-1">
                    <mxGeometry x="902.5" y="460" width="245" height="100" as="geometry"/>
                </mxCell>
                <mxCell id="uJDmOPZu8vUAQYBcxrss-133" value="THD_M = 4" style="text;html=1;align=center;verticalAlign=middle;resizable=0;points=[];autosize=1;strokeColor=none;fillColor=none;" vertex="1" parent="uJDmOPZu8vUAQYBcxrss-1">
                    <mxGeometry x="792.5" y="642" width="85" height="30" as="geometry"/>
                </mxCell>
                <mxCell id="uJDmOPZu8vUAQYBcxrss-134" value="" style="strokeWidth=1;html=1;shape=mxgraph.flowchart.annotation_2;align=left;labelPosition=right;pointerEvents=1;" vertex="1" parent="uJDmOPZu8vUAQYBcxrss-1">
                    <mxGeometry x="877.5" y="617" width="20" height="80" as="geometry"/>
                </mxCell>
                <mxCell id="uJDmOPZu8vUAQYBcxrss-135" value="" style="strokeWidth=1;html=1;shape=mxgraph.flowchart.annotation_2;align=left;labelPosition=right;pointerEvents=1;rotation=90;" vertex="1" parent="uJDmOPZu8vUAQYBcxrss-1">
                    <mxGeometry x="974.81" y="527.56" width="14.63" height="159.25" as="geometry"/>
                </mxCell>
                <mxCell id="uJDmOPZu8vUAQYBcxrss-136" value="THD_K = 8" style="text;html=1;align=center;verticalAlign=middle;resizable=0;points=[];autosize=1;strokeColor=none;fillColor=none;" vertex="1" parent="uJDmOPZu8vUAQYBcxrss-1">
                    <mxGeometry x="942.6199999999999" y="572" width="80" height="30" as="geometry"/>
                </mxCell>
                <mxCell id="uJDmOPZu8vUAQYBcxrss-137" value="layout_sX = (4, 8): (1, 4)" style="text;html=1;align=center;verticalAlign=middle;resizable=0;points=[];autosize=1;strokeColor=none;fillColor=none;" vertex="1" parent="uJDmOPZu8vUAQYBcxrss-1">
                    <mxGeometry x="907.62" y="795" width="150" height="30" as="geometry"/>
                </mxCell>
                <mxCell id="uJDmOPZu8vUAQYBcxrss-138" value="i=0" style="text;html=1;align=center;verticalAlign=middle;resizable=0;points=[];autosize=1;strokeColor=none;fillColor=none;" vertex="1" parent="uJDmOPZu8vUAQYBcxrss-1">
                    <mxGeometry x="1075" y="647" width="35" height="30" as="geometry"/>
                </mxCell>
                <mxCell id="uJDmOPZu8vUAQYBcxrss-139" value="i=1" style="text;html=1;align=center;verticalAlign=middle;resizable=0;points=[];autosize=1;strokeColor=none;fillColor=none;" vertex="1" parent="uJDmOPZu8vUAQYBcxrss-1">
                    <mxGeometry x="1075" y="727" width="35" height="30" as="geometry"/>
                </mxCell>
                <mxCell id="uJDmOPZu8vUAQYBcxrss-140" value="" style="strokeWidth=1;html=1;shape=mxgraph.flowchart.annotation_2;align=left;labelPosition=right;pointerEvents=1;" vertex="1" parent="uJDmOPZu8vUAQYBcxrss-1">
                    <mxGeometry x="790" y="320" width="10" height="35" as="geometry"/>
                </mxCell>
                <mxCell id="uJDmOPZu8vUAQYBcxrss-141" value="BLK_M" style="text;html=1;align=center;verticalAlign=middle;resizable=0;points=[];autosize=1;strokeColor=none;fillColor=none;" vertex="1" parent="uJDmOPZu8vUAQYBcxrss-1">
                    <mxGeometry x="732.5" y="322.5" width="60" height="30" as="geometry"/>
                </mxCell>
                <mxCell id="uJDmOPZu8vUAQYBcxrss-142" value="" style="strokeWidth=1;html=1;shape=mxgraph.flowchart.annotation_2;align=left;labelPosition=right;pointerEvents=1;rotation=90;" vertex="1" parent="uJDmOPZu8vUAQYBcxrss-1">
                    <mxGeometry x="819.75" y="289.75" width="10" height="40.5" as="geometry"/>
                </mxCell>
                <mxCell id="uJDmOPZu8vUAQYBcxrss-143" value="BLK_K" style="text;html=1;align=center;verticalAlign=middle;resizable=0;points=[];autosize=1;strokeColor=none;fillColor=none;" vertex="1" parent="uJDmOPZu8vUAQYBcxrss-1">
                    <mxGeometry x="794.75" y="280" width="60" height="30" as="geometry"/>
                </mxCell>
                <mxCell id="wMPXJno-5zzenOZJHTEK-0" value="" style="rounded=0;whiteSpace=wrap;html=1;fillColor=none;" vertex="1" parent="uJDmOPZu8vUAQYBcxrss-1">
                    <mxGeometry x="430" y="516.81" width="70" height="110" as="geometry"/>
                </mxCell>
                <mxCell id="wMPXJno-5zzenOZJHTEK-1" value="" style="rounded=0;whiteSpace=wrap;html=1;fillColor=none;" vertex="1" parent="uJDmOPZu8vUAQYBcxrss-1">
                    <mxGeometry x="430" y="516.81" width="10" height="110" as="geometry"/>
                </mxCell>
                <mxCell id="wMPXJno-5zzenOZJHTEK-2" value="" style="rounded=0;whiteSpace=wrap;html=1;fillColor=none;" vertex="1" parent="uJDmOPZu8vUAQYBcxrss-1">
                    <mxGeometry x="430" y="642" width="130" height="10" as="geometry"/>
                </mxCell>
                <mxCell id="wMPXJno-5zzenOZJHTEK-3" value="" style="rounded=0;whiteSpace=wrap;html=1;fillColor=none;" vertex="1" parent="uJDmOPZu8vUAQYBcxrss-1">
                    <mxGeometry x="440" y="516.81" width="10" height="110" as="geometry"/>
                </mxCell>
                <mxCell id="wMPXJno-5zzenOZJHTEK-4" value="&lt;span style=&quot;text-align: left;&quot;&gt;&lt;font style=&quot;font-size: 10px;&quot;&gt;group_size&lt;/font&gt;&lt;/span&gt;" style="text;html=1;align=center;verticalAlign=middle;resizable=0;points=[];autosize=1;strokeColor=none;fillColor=none;" vertex="1" parent="uJDmOPZu8vUAQYBcxrss-1">
                    <mxGeometry x="355" y="559.31" width="70" height="30" as="geometry"/>
                </mxCell>
                <mxCell id="wMPXJno-5zzenOZJHTEK-5" style="edgeStyle=none;html=1;dashed=1;endArrow=diamondThin;endFill=1;entryX=0.5;entryY=1;entryDx=0;entryDy=0;exitX=0.038;exitY=0.003;exitDx=0;exitDy=0;exitPerimeter=0;" edge="1" parent="uJDmOPZu8vUAQYBcxrss-1" source="wMPXJno-5zzenOZJHTEK-2" target="wMPXJno-5zzenOZJHTEK-1">
                    <mxGeometry relative="1" as="geometry">
                        <mxPoint x="420" y="641.81" as="sourcePoint"/>
                        <mxPoint x="435" y="636.81" as="targetPoint"/>
                    </mxGeometry>
                </mxCell>
                <mxCell id="wMPXJno-5zzenOZJHTEK-6" value="" style="rounded=0;whiteSpace=wrap;html=1;fillColor=none;" vertex="1" parent="uJDmOPZu8vUAQYBcxrss-1">
                    <mxGeometry x="430" y="642" width="10" height="10" as="geometry"/>
                </mxCell>
                <mxCell id="wMPXJno-5zzenOZJHTEK-7" value="" style="rounded=0;whiteSpace=wrap;html=1;fillColor=#dae8fc;strokeColor=#6c8ebf;opacity=60;dashed=1;" vertex="1" parent="uJDmOPZu8vUAQYBcxrss-1">
                    <mxGeometry x="430" y="642" width="10" height="10" as="geometry"/>
                </mxCell>
                <mxCell id="wMPXJno-5zzenOZJHTEK-8" value="" style="rounded=0;whiteSpace=wrap;html=1;fillColor=none;" vertex="1" parent="uJDmOPZu8vUAQYBcxrss-1">
                    <mxGeometry x="450" y="516.81" width="10" height="110" as="geometry"/>
                </mxCell>
                <mxCell id="wMPXJno-5zzenOZJHTEK-9" value="" style="rounded=0;whiteSpace=wrap;html=1;fillColor=none;" vertex="1" parent="uJDmOPZu8vUAQYBcxrss-1">
                    <mxGeometry x="460" y="516.81" width="10" height="110" as="geometry"/>
                </mxCell>
                <mxCell id="wMPXJno-5zzenOZJHTEK-10" value="" style="rounded=0;whiteSpace=wrap;html=1;fillColor=#dae8fc;strokeColor=#6c8ebf;opacity=90;dashed=1;glass=0;" vertex="1" parent="uJDmOPZu8vUAQYBcxrss-1">
                    <mxGeometry x="430" y="516.81" width="40" height="35" as="geometry"/>
                </mxCell>
                <mxCell id="wMPXJno-5zzenOZJHTEK-11" style="edgeStyle=none;html=1;dashed=1;endArrow=diamondThin;endFill=1;entryX=0.5;entryY=1;entryDx=0;entryDy=0;exitX=0.5;exitY=0;exitDx=0;exitDy=0;" edge="1" parent="uJDmOPZu8vUAQYBcxrss-1" source="wMPXJno-5zzenOZJHTEK-12">
                    <mxGeometry relative="1" as="geometry">
                        <mxPoint x="445" y="645" as="sourcePoint"/>
                        <mxPoint x="445.03" y="626.78" as="targetPoint"/>
                    </mxGeometry>
                </mxCell>
                <mxCell id="wMPXJno-5zzenOZJHTEK-12" value="" style="rounded=0;whiteSpace=wrap;html=1;fillColor=none;" vertex="1" parent="uJDmOPZu8vUAQYBcxrss-1">
                    <mxGeometry x="440" y="642" width="10" height="10" as="geometry"/>
                </mxCell>
                <mxCell id="wMPXJno-5zzenOZJHTEK-13" value="" style="rounded=0;whiteSpace=wrap;html=1;fillColor=none;" vertex="1" parent="uJDmOPZu8vUAQYBcxrss-1">
                    <mxGeometry x="450" y="642" width="10" height="10" as="geometry"/>
                </mxCell>
                <mxCell id="wMPXJno-5zzenOZJHTEK-14" value="" style="rounded=0;whiteSpace=wrap;html=1;fillColor=none;" vertex="1" parent="uJDmOPZu8vUAQYBcxrss-1">
                    <mxGeometry x="460" y="642" width="10" height="10" as="geometry"/>
                </mxCell>
                <mxCell id="wMPXJno-5zzenOZJHTEK-15" value="" style="rounded=0;whiteSpace=wrap;html=1;fillColor=#dae8fc;strokeColor=#6c8ebf;opacity=60;dashed=1;" vertex="1" parent="uJDmOPZu8vUAQYBcxrss-1">
                    <mxGeometry x="440" y="642" width="10" height="10" as="geometry"/>
                </mxCell>
                <mxCell id="wMPXJno-5zzenOZJHTEK-16" value="" style="rounded=0;whiteSpace=wrap;html=1;fillColor=#dae8fc;strokeColor=#6c8ebf;opacity=60;dashed=1;" vertex="1" parent="uJDmOPZu8vUAQYBcxrss-1">
                    <mxGeometry x="450" y="642" width="10" height="10" as="geometry"/>
                </mxCell>
                <mxCell id="wMPXJno-5zzenOZJHTEK-17" value="" style="rounded=0;whiteSpace=wrap;html=1;fillColor=#dae8fc;strokeColor=#6c8ebf;opacity=60;dashed=1;" vertex="1" parent="uJDmOPZu8vUAQYBcxrss-1">
                    <mxGeometry x="460" y="642" width="10" height="10" as="geometry"/>
                </mxCell>
                <mxCell id="wMPXJno-5zzenOZJHTEK-18" value="column-major mX = (_group_size, num_groups) : (_1, _block_size)" style="text;html=1;align=center;verticalAlign=middle;resizable=0;points=[];autosize=1;strokeColor=none;fillColor=none;fontSize=8;sketch=1;jiggle=1;fillStyle=solid;" vertex="1" parent="uJDmOPZu8vUAQYBcxrss-1">
                    <mxGeometry x="375" y="797.5" width="260" height="25" as="geometry"/>
                </mxCell>
                <mxCell id="wMPXJno-5zzenOZJHTEK-19" value="" style="rounded=0;whiteSpace=wrap;html=1;fillColor=none;" vertex="1" parent="uJDmOPZu8vUAQYBcxrss-1">
                    <mxGeometry x="430" y="667" width="70" height="110" as="geometry"/>
                </mxCell>
            </root>
        </mxGraphModel>
    </diagram>
</mxfile>